<svg width="23" height="23" viewBox="0 0 23 23" fill="none" xmlns="http://www.w3.org/2000/svg">
<path d="M11.11 22.22C17.2458 22.22 22.22 17.2458 22.22 11.11C22.22 4.97411 17.2458 0 11.11 0C4.97411 0 0 4.97411 0 11.11C0 17.2458 4.97411 22.22 11.11 22.22Z" fill="#DEFF00"/>
<path d="M8.48506 6.93211L8.99614 7.8477C9.4572 8.67304 9.27234 9.75718 8.54596 10.4825C8.54596 10.4825 7.66516 11.3633 9.26147 12.9596C10.8578 14.5559 11.7375 13.6762 11.7386 13.6751C12.4649 12.9487 13.548 12.7638 14.3733 13.2249L15.2889 13.736C16.5362 14.4319 16.683 16.1805 15.5869 17.2766C14.9279 17.9355 14.1211 18.4477 13.2294 18.4814C11.7277 18.5379 9.17774 18.1584 6.62017 15.6009C4.0626 13.0433 3.68201 10.4934 3.73964 8.99165C3.77335 8.09998 4.28552 7.29313 4.94448 6.63416C6.04058 5.53806 7.78912 5.68486 8.48506 6.93211Z" stroke="black" stroke-miterlimit="10"/>
<path d="M11.019 5.21804C11.0712 4.89617 11.3767 4.68723 11.6986 4.73942C11.7182 4.74377 11.7823 4.75574 11.8161 4.76226C11.8835 4.77748 11.977 4.80032 12.0933 4.83403C12.3271 4.90253 12.6534 5.01454 13.0448 5.19396C13.8288 5.55389 14.8717 6.18241 15.9547 7.26437C17.0378 8.34742 17.6663 9.39024 18.0251 10.1743C18.2045 10.5657 18.3165 10.8919 18.385 11.1257C18.4188 11.2421 18.4416 11.3367 18.4568 11.403C18.4644 11.4367 18.4699 11.4639 18.4731 11.4835L18.4775 11.5085C18.5297 11.8304 18.3133 12.1468 17.9914 12.199C17.6706 12.2512 17.3683 12.0337 17.315 11.7129C17.3129 11.7042 17.3085 11.6814 17.3042 11.6596C17.2944 11.6161 17.2781 11.5466 17.2509 11.4552C17.1976 11.2725 17.1052 11.0007 16.9518 10.6658C16.6452 9.99701 16.0939 9.07272 15.1196 8.09841C14.1453 7.1241 13.2221 6.57278 12.5522 6.26614C12.2173 6.11281 11.9455 6.02038 11.7628 5.9671C11.6714 5.941 11.5562 5.91382 11.5127 5.90403C11.1919 5.85075 10.9679 5.54736 11.019 5.22658L11.019 5.21804Z" fill="black" stroke="black" stroke-width="0.5" stroke-miterlimit="10"/>
<path fill-rule="evenodd" clip-rule="evenodd" d="M11.2195 7.86868C11.3087 7.55551 11.6153 7.44786 11.9285 7.53703H11.9296H11.9307H11.9328L11.9394 7.53921L11.9546 7.54356C11.9665 7.54682 11.9818 7.55225 11.9992 7.55878C12.034 7.57183 12.0807 7.58923 12.1384 7.61424C12.2525 7.66317 12.4091 7.73929 12.6016 7.85346C12.9865 8.08182 13.5128 8.46023 14.1305 9.07788C14.7481 9.69552 15.1265 10.2218 15.3549 10.6068C15.4691 10.7992 15.5441 10.9558 15.5941 11.07C15.6191 11.1276 15.6365 11.1744 15.6496 11.2092C15.6561 11.2266 15.6604 11.2418 15.6648 11.2538L15.6691 11.269L15.6713 11.2755V11.2777L15.6724 11.2788C15.6724 11.2788 15.6724 11.2799 15.1048 11.4419L15.6724 11.2799C15.7616 11.593 15.58 11.9203 15.2668 12.0095C14.9558 12.0987 14.6318 11.9203 14.5393 11.6126L14.5361 11.6039C14.5317 11.592 14.523 11.5691 14.5089 11.5343C14.4795 11.4669 14.4273 11.3549 14.3393 11.207C14.1642 10.9101 13.8467 10.4621 13.2964 9.91191C12.7462 9.3606 12.2982 9.04417 12.0013 8.8691C11.8535 8.78102 11.7415 8.72882 11.674 8.69946C11.6403 8.68533 11.6164 8.67663 11.6044 8.67228L11.5957 8.66902C11.2869 8.57659 11.1097 8.25254 11.1988 7.94154L11.2195 7.86868Z" fill="black"/>
<path d="M11.9285 7.53703C11.6153 7.44786 11.3087 7.55551 11.2195 7.86868L11.1988 7.94154C11.1097 8.25254 11.2869 8.57659 11.5957 8.66902L11.6044 8.67228C11.6164 8.67663 11.6403 8.68533 11.674 8.69946C11.7415 8.72882 11.8535 8.78102 12.0013 8.8691C12.2982 9.04417 12.7462 9.3606 13.2964 9.91191C13.8467 10.4621 14.1642 10.9101 14.3393 11.207C14.4273 11.3549 14.4795 11.4669 14.5089 11.5343C14.523 11.5691 14.5317 11.592 14.5361 11.6039L14.5393 11.6126C14.6318 11.9203 14.9558 12.0987 15.2668 12.0095C15.58 11.9203 15.7616 11.593 15.6724 11.2799L15.1048 11.4419C15.6724 11.2799 15.6724 11.2788 15.6724 11.2788L15.6713 11.2777V11.2755L15.6691 11.269L15.6648 11.2538C15.6604 11.2418 15.6561 11.2266 15.6496 11.2092C15.6365 11.1744 15.6191 11.1276 15.5941 11.07C15.5441 10.9558 15.4691 10.7992 15.3549 10.6068C15.1265 10.2218 14.7481 9.69552 14.1305 9.07788C13.5128 8.46023 12.9865 8.08182 12.6016 7.85346C12.4091 7.73929 12.2525 7.66317 12.1384 7.61424C12.0807 7.58923 12.034 7.57183 11.9992 7.55878C11.9818 7.55225 11.9665 7.54682 11.9546 7.54356L11.9394 7.53921L11.9328 7.53703H11.9307H11.9296H11.9285ZM11.9285 7.53703L11.7665 8.10465" stroke="black" stroke-width="0.5" stroke-miterlimit="10"/>
</svg>
