<svg width="23" height="23" viewBox="0 0 23 23" fill="none" xmlns="http://www.w3.org/2000/svg">
<path d="M11.1104 22.2207C17.2464 22.2207 22.2207 17.2464 22.2207 11.1104C22.2207 4.97427 17.2464 0 11.1104 0C4.97427 0 0 4.97427 0 11.1104C0 17.2464 4.97427 22.2207 11.1104 22.2207Z" fill="#DEFF00"/>
<path d="M16.8625 6.14062H5.35961C4.63892 6.14062 4.05469 6.72486 4.05469 7.44555V14.7749C4.05469 15.4956 4.63892 16.0798 5.35961 16.0798H16.8625C17.5832 16.0798 18.1675 15.4956 18.1675 14.7749V7.44555C18.1675 6.72486 17.5832 6.14062 16.8625 6.14062Z" stroke="#000" stroke-miterlimit="10"/>
<path d="M4.05469 8.90283L10.5597 10.9385C10.9186 11.0505 11.3035 11.0505 11.6624 10.9385L18.1675 8.90283" stroke="#000" stroke-miterlimit="10"/>
</svg>
