<svg width="55" height="55" viewBox="0 0 55 55" fill="none" xmlns="http://www.w3.org/2000/svg">
<path d="M18.3165 27.0472C17.9155 26.6461 17.2243 26.7229 16.9384 27.2776C16.7677 27.6104 16.8659 28.02 17.1304 28.2888L26.4787 37.6371C26.6451 37.8035 26.8669 37.8888 27.0845 37.8888C27.3619 37.8888 27.6435 37.7523 27.8141 37.4835C28.0317 37.1379 27.9464 36.6813 27.6605 36.3955L18.3165 27.0515V27.0472Z" fill="#483778" stroke="#483778" stroke-miterlimit="10"/>
<path d="M29.636 30.2771C29.9133 30.2771 30.1949 30.1405 30.3656 29.8717C30.5832 29.5261 30.4978 29.0696 30.212 28.7837L25.9538 24.5256C25.6893 24.2611 25.2754 24.1629 24.9426 24.3336C24.3922 24.6195 24.3154 25.3149 24.7122 25.7117L29.0258 30.0253C29.1922 30.1917 29.4141 30.2771 29.6317 30.2771H29.636Z" fill="#483778" stroke="#483778" stroke-miterlimit="10"/>
<path d="M53.4396 40.9565C52.966 39.8771 52.2791 38.8701 51.4599 38.0467L41.2199 27.8067C42.3292 26.4285 42.9351 24.7261 42.9351 22.9299C42.9351 22.5032 42.8967 22.0851 42.8327 21.6755C43.4855 22.004 44.2108 22.1789 44.966 22.1789C46.2375 22.1789 47.4322 21.6797 48.3324 20.7795C50.1927 18.9235 50.1927 15.8984 48.3324 14.0424L46.8775 12.5875L45.6658 11.3715L43.3703 9.076L42.1543 7.86427L40.7719 6.48187C40.0935 5.80347 39.2444 5.29573 38.3015 5.108C36.6802 4.78373 35.0844 5.28294 33.958 6.40934C33.0578 7.3096 32.5628 8.50427 32.5628 9.77574C32.5628 10.5309 32.7378 11.2563 33.0663 11.9091C32.6567 11.8408 32.2343 11.8067 31.8119 11.8067C30.0156 11.8067 28.3132 12.4125 26.9308 13.5219L16.6951 3.28187C15.8716 2.46267 14.8647 1.77574 13.781 1.30214C12.5735 0.768802 11.2935 0.5 9.97936 0.5C6.22043 0.5 2.81563 2.72294 1.30523 6.16614C0.285497 8.47867 0.234297 11.0557 1.15163 13.4109C2.06896 15.7704 3.85243 17.6264 6.16923 18.6419C6.22896 18.6717 6.29296 18.6973 6.35696 18.7229C6.47216 22.5117 9.48443 25.6563 13.3372 25.8653C13.4695 25.8739 13.606 25.8781 13.7383 25.8781C14.5234 25.8781 15.3084 25.7459 16.0636 25.4941L31.6967 20.2547C32.0167 20.212 32.2898 19.9901 32.3964 19.6744C32.5031 19.3715 32.4306 19.0216 32.1916 18.7827L28.1554 14.7421C29.205 13.9528 30.4764 13.5219 31.8119 13.5219C33.4375 13.5219 34.9692 14.1576 36.117 15.3053L39.4364 18.6205C40.5842 19.7725 41.2199 21.3043 41.2199 22.9299C41.2199 24.2653 40.789 25.5368 39.9996 26.5864L35.9591 22.5501C35.7202 22.3112 35.3703 22.2387 35.0674 22.3453C34.7516 22.4477 34.5298 22.7208 34.4828 23.0451L29.2476 38.6739C28.949 39.5613 28.8252 40.4787 28.8764 41.4045C29.0855 45.2445 32.2002 48.2696 36.0188 48.3848C36.0444 48.4488 36.07 48.5128 36.0956 48.5725C37.6103 52.0157 41.0151 54.2387 44.774 54.2387C46.0882 54.2387 47.3639 53.9699 48.5756 53.4365C50.8924 52.4211 52.6759 50.5608 53.5932 48.2056C54.5106 45.8504 54.4594 43.2733 53.4396 40.9565ZM29.4012 18.4157L7.41083 17.2893C7.21456 17.2211 7.03536 17.1485 6.85616 17.0717C4.96176 16.2397 3.50256 14.7165 2.74736 12.788C1.99643 10.8595 2.04336 8.75174 2.87536 6.85307C4.1127 4.03707 6.89883 2.2152 9.97936 2.2152C11.0546 2.2152 12.0999 2.43707 13.094 2.87227C13.9815 3.26054 14.8092 3.82373 15.4791 4.4936L29.4012 18.4157ZM36.629 13.3896L35.2039 11.9645C34.837 11.5976 34.5426 11.1581 34.4018 10.6589C34.0818 9.52827 34.3932 8.40187 35.174 7.6168C35.9548 6.836 37.0812 6.52453 38.2119 6.84453C38.7111 6.98533 39.1506 7.27973 39.5175 7.64667L40.9426 9.07173L36.629 13.3853V13.3896ZM45.6658 13.7992L47.0866 15.22C47.4535 15.5869 47.7479 16.0264 47.8887 16.5256C48.2087 17.6563 47.9015 18.7827 47.1164 19.5677C46.5404 20.1437 45.7767 20.4637 44.9618 20.4637C44.1468 20.4637 43.3788 20.1437 42.8028 19.5677L41.3479 18.1128L45.6615 13.7992H45.6658ZM51.9932 47.5827C51.2423 49.5112 49.7831 51.0344 47.8887 51.8664C46.8946 52.3016 45.8492 52.5235 44.774 52.5235C41.6935 52.5235 38.9074 50.7016 37.67 47.8856C37.589 47.7064 37.5207 47.5272 37.4524 47.3309L36.9234 37.0056C36.9234 36.9629 36.9148 36.9203 36.902 36.8819L36.326 25.3363L50.2482 39.2627C50.918 39.9325 51.4812 40.756 51.8695 41.6477C52.7015 43.5464 52.7484 45.6541 51.9932 47.5827Z" fill="#483778" stroke="#483778" stroke-miterlimit="10"/>
<path d="M11.5919 29.7437C10.4868 30.5203 4.09963 35.1581 3.79243 42.6291C3.71563 44.5192 4.04416 46.1875 4.48363 47.5485" stroke="#483778" stroke-width="2" stroke-miterlimit="10" stroke-linecap="round"/>
<path d="M7.94922 50.7443C9.31029 51.1837 10.9786 51.5123 12.8687 51.4355C20.3396 51.1368 24.9818 44.7496 25.7626 43.6445" stroke="#483778" stroke-width="2" stroke-miterlimit="10" stroke-linecap="round"/>
<path d="M35.2844 25.3363L36.6199 47.5485C36.6199 47.5485 30.2327 46.9427 29.7591 41.9379C29.2855 36.9331 35.2801 25.3363 35.2801 25.3363H35.2844Z" fill="#483778" stroke="#483778" stroke-width="2" stroke-miterlimit="10"/>
<path d="M29.2609 19.2306L7.02734 18.3987C7.02734 18.3987 7.77828 24.7688 12.7916 25.1315C17.8049 25.4941 29.2652 19.2306 29.2652 19.2306H29.2609Z" fill="#483778" stroke="#483778" stroke-width="2" stroke-miterlimit="10"/>
<path d="M22.4858 41.432C22.6309 41.7947 22.4005 42.2195 22.0336 42.3517L21.8587 42.4115C21.7776 42.4371 21.6965 42.4413 21.6155 42.4243C20.5317 42.1469 18.3813 41.7629 15.8512 42.4499C12.5915 43.3288 10.6501 45.4451 9.87361 46.4264C9.67307 46.6781 9.3104 46.772 9.04587 46.5928C9.0032 46.5672 9.12202 46.619 9.08789 46.5848C9.08789 46.5848 8.93067 46.4989 8.9264 46.4947C8.66614 46.2259 8.72587 45.7779 9.02454 45.5475C10.0443 44.7752 12.4635 42.6675 13.2443 39.0835C13.7179 36.9117 13.3979 35.0685 13.1077 33.9891C13.0651 33.8227 13.0736 33.652 13.1291 33.4899L13.1376 33.46C13.2699 33.0931 13.6752 32.8541 14.0379 32.9992C14.1275 33.0333 14.2128 33.0888 14.2853 33.1613L22.3323 41.2083C22.4048 41.2808 22.456 41.3619 22.4944 41.4515L22.4858 41.432Z" fill="#483778" stroke="#483778" stroke-width="1.72" stroke-miterlimit="10"/>
</svg>
