<svg width="1920" height="502" viewBox="0 0 1920 502" fill="none" xmlns="http://www.w3.org/2000/svg">
<path d="M2077.84 175.791C2078.5 181.187 2078.85 186.704 2078.85 192.308C2078.85 259.758 2029.12 314.427 1967.79 314.427C1943.15 314.427 1920.37 305.607 1901.96 290.664C1878.42 321.345 1840.14 341.321 1796.91 341.321C1777.81 341.321 1759.69 337.43 1743.36 330.425C1729.37 337.412 1713.84 341.321 1697.47 341.321C1656.76 341.321 1621.17 317.212 1601.84 281.29C1593.55 284.576 1584.76 286.358 1575.65 286.358C1543.81 286.358 1515.77 264.739 1499.34 231.913C1452.75 221.363 1416.17 185.113 1405.94 139.178C1423.24 164.619 1450.04 183.315 1481.34 190.405C1497.77 223.231 1525.81 244.85 1557.65 244.85C1566.75 244.85 1575.54 243.086 1583.84 239.783C1603.17 275.704 1638.76 299.813 1679.47 299.813C1695.84 299.813 1711.38 295.922 1725.36 288.917C1741.69 295.905 1759.81 299.813 1778.91 299.813C1822.15 299.813 1860.43 279.838 1883.96 249.156C1902.39 264.099 1925.15 272.92 1949.79 272.92C2011.12 272.92 2060.85 218.25 2060.85 150.8C2060.85 145.197 2060.5 139.679 2059.84 134.283C2092.88 113.114 2115.09 73.7512 2115.09 28.6634C2115.09 17.9924 2113.85 7.66735 2111.51 -2.17346C2125.09 18.0616 2133.1 43.1046 2133.1 70.1712C2133.1 115.259 2110.89 154.622 2077.85 175.791H2077.84Z" fill="white" fill-opacity="0.6"/>
<path d="M2076.44 147.047C2077.11 152.443 2077.47 157.96 2077.47 163.564C2077.47 231.014 2026.49 285.683 1963.6 285.683C1938.34 285.683 1914.99 276.863 1896.1 261.92C1871.96 292.601 1832.71 312.577 1788.37 312.577C1768.8 312.577 1750.21 308.686 1733.46 301.681C1719.12 308.668 1703.19 312.577 1686.41 312.577C1644.66 312.577 1608.17 288.468 1588.35 252.546C1579.85 255.832 1570.84 257.614 1561.5 257.614C1528.86 257.614 1500.1 235.995 1483.25 203.169C1451.15 196.078 1423.67 177.383 1405.94 151.942C1392.4 132.554 1384.51 109.241 1384.51 84.1802C1384.51 38.7983 1410.36 -0.789764 1448.72 -21.855C1464.85 -46.2408 1489.11 -63.9854 1517.26 -70.5575C1526.34 -104.767 1545.52 -128.34 1567.7 -128.34C1574.64 -128.34 1581.27 -126.005 1587.4 -121.802C1593.14 -130.969 1600.01 -139.27 1607.8 -146.448C1613.55 -205.89 1649.12 -251.687 1692.16 -251.687C1704.29 -251.687 1715.81 -248.055 1726.26 -241.5C1748.64 -267.443 1779.29 -283.441 1813.11 -283.441C1867.85 -283.441 1914.3 -241.535 1930.75 -183.372C1939.32 -169.9 1945.96 -154.645 1950.21 -138.129C1973.6 -127.492 1992.14 -106.012 2001.06 -79.1358C2006.99 -80.1389 2013.05 -80.6923 2019.22 -80.6923C2072.19 -80.6923 2116.7 -41.9344 2129.44 10.6076C2131.84 20.4657 2133.11 30.7908 2133.11 41.4444C2133.11 86.5323 2110.34 125.896 2076.46 147.065L2076.44 147.047Z" fill="white"/>
<path d="M736.287 175.791C736.949 181.187 737.299 186.704 737.299 192.308C737.299 259.758 687.574 314.427 626.237 314.427C601.599 314.427 578.824 305.607 560.412 290.664C536.874 321.345 498.587 341.321 455.362 341.321C436.262 341.321 418.137 337.43 401.812 330.425C387.824 337.412 372.287 341.321 355.924 341.321C315.212 341.321 279.624 317.212 260.287 281.29C251.999 284.576 243.212 286.358 234.099 286.358C202.262 286.358 174.224 264.739 157.787 231.913C111.199 221.363 74.6242 185.113 64.3867 139.178C81.6867 164.619 108.487 183.315 139.787 190.405C156.224 223.231 184.262 244.85 216.099 244.85C225.199 244.85 233.987 243.086 242.287 239.783C261.624 275.704 297.212 299.813 337.924 299.813C354.287 299.813 369.824 295.922 383.812 288.917C400.137 295.905 418.262 299.813 437.362 299.813C480.599 299.813 518.874 279.838 542.412 249.156C560.837 264.099 583.599 272.92 608.237 272.92C669.574 272.92 719.299 218.25 719.299 150.8C719.299 145.197 718.949 139.679 718.287 134.283C751.324 113.114 773.537 73.7512 773.537 28.6634C773.537 17.9924 772.299 7.66735 769.962 -2.17346C783.537 18.0616 791.549 43.1046 791.549 70.1712C791.549 115.259 769.337 154.622 736.299 175.791H736.287Z" fill="white" fill-opacity="0.6"/>
<path d="M734.888 147.047C735.563 152.443 735.925 157.96 735.925 163.564C735.925 231.014 684.938 285.683 622.05 285.683C596.788 285.683 573.438 276.863 554.55 261.92C530.413 292.601 491.163 312.577 446.825 312.577C427.25 312.577 408.663 308.686 391.913 301.681C377.575 308.668 361.638 312.577 344.863 312.577C303.113 312.577 266.625 288.468 246.8 252.546C238.3 255.832 229.288 257.614 219.95 257.614C187.313 257.614 158.55 235.995 141.7 203.169C109.6 196.078 82.1254 177.383 64.3879 151.942C50.8504 132.554 42.9629 109.241 42.9629 84.1802C42.9629 38.7983 68.8129 -0.789764 107.175 -21.855C123.3 -46.2408 147.563 -63.9854 175.713 -70.5575C184.788 -104.767 203.975 -128.34 226.15 -128.34C233.088 -128.34 239.725 -126.005 245.85 -121.802C251.588 -130.969 258.463 -139.27 266.25 -146.448C272 -205.89 307.575 -251.687 350.613 -251.687C362.738 -251.687 374.263 -248.055 384.713 -241.5C407.088 -267.443 437.738 -283.441 471.563 -283.441C526.3 -283.441 572.75 -241.535 589.2 -183.372C597.775 -169.9 604.413 -154.645 608.663 -138.129C632.05 -127.492 650.588 -106.012 659.513 -79.1358C665.438 -80.1389 671.5 -80.6923 677.675 -80.6923C730.638 -80.6923 775.15 -41.9344 787.888 10.6076C790.288 20.4657 791.563 30.7907 791.563 41.4444C791.563 86.5323 768.788 125.896 734.913 147.065L734.888 147.047Z" fill="white"/>
<path d="M1609.2 193.207C1609.2 281.481 1547.45 353.03 1471.29 353.03C1441.16 353.03 1413.29 341.84 1390.61 322.833C1378.65 361.089 1357.25 386.599 1332.84 386.599C1321.21 386.599 1310.29 380.805 1300.71 370.636C1277.08 419.269 1232.09 452.13 1180.49 452.13C1158.24 452.13 1137.23 446.007 1118.61 435.163C1095.83 474.544 1059.24 500.071 1017.98 500.071C979.513 500.071 945.113 477.882 922.163 442.981C911.838 448.895 900.738 452.13 889.15 452.13C852.338 452.13 820.225 419.615 803.213 371.414C787.025 381.117 768.625 386.599 749.1 386.599C684.438 386.599 632.025 326.482 632.025 252.356C632.025 242.636 632.925 233.159 634.638 224.027C645.963 284.576 692.9 329.976 749.088 329.976C768.613 329.976 787.013 324.493 803.2 314.791C820.225 362.992 852.325 395.506 889.138 395.506C900.725 395.506 911.825 392.272 922.15 386.357C945.1 421.258 979.5 443.448 1017.96 443.448C1059.23 443.448 1095.81 417.92 1118.6 378.54C1137.21 389.384 1158.23 395.506 1180.48 395.506C1232.08 395.506 1277.05 362.646 1300.7 314.012C1310.26 324.182 1321.2 329.976 1332.83 329.976C1357.24 329.976 1378.64 304.483 1390.6 266.209C1413.28 285.199 1441.15 296.406 1471.28 296.406C1539.1 296.406 1595.49 239.679 1607.04 164.913C1608.45 174.096 1609.19 183.557 1609.19 193.207H1609.2Z" fill="white" fill-opacity="0.6"/>
<path d="M1648.52 151.198C1648.52 160.849 1647.74 170.309 1646.2 179.492C1646.19 179.51 1646.2 179.51 1646.2 179.527C1633.72 254.293 1572.79 311.02 1499.51 311.02C1466.96 311.02 1436.85 299.831 1412.35 280.823C1399.42 319.08 1376.3 344.59 1349.92 344.59C1337.37 344.59 1325.55 338.796 1315.22 328.627C1289.67 377.26 1241.07 410.12 1185.32 410.12C1161.29 410.12 1138.57 403.998 1118.47 393.154C1093.85 432.534 1054.31 458.062 1009.74 458.062C968.175 458.062 931 435.872 906.212 400.971C895.062 406.886 883.062 410.12 870.537 410.12C830.762 410.12 796.075 377.606 777.675 329.405C760.187 339.107 740.3 344.59 719.212 344.59C658.5 344.59 607.787 299.191 595.55 238.641C593.7 229.527 592.725 220.066 592.725 210.347C592.725 152.27 627.462 102.824 676.075 84.0937C675.95 81.4476 675.887 78.7668 675.887 76.0688C675.887 -12.1871 742.6 -83.7535 824.9 -83.7535C836.775 -83.7535 848.35 -82.2489 859.425 -79.4471C883.862 -98.264 913.825 -109.333 946.2 -109.333C951.225 -109.333 956.212 -109.056 961.1 -108.554C979.825 -190.048 1042.85 -249.992 1117.75 -249.992C1185.99 -249.992 1244.37 -200.218 1268.37 -129.723C1301.29 -127.077 1330.67 -111.062 1351.74 -86.7801C1405.74 -79.3087 1451.61 -48.9907 1477.35 -6.8949C1484.59 -8.05365 1491.99 -8.64166 1499.52 -8.64166C1581.82 -8.64166 1648.54 62.9074 1648.54 151.181L1648.52 151.198Z" fill="white"/>
<path opacity="0.6" d="M191.038 387.274C165.85 408.546 134.125 420.722 99.8254 419.615C58.0504 418.249 20.7504 397.443 -5.14961 365.24C-29.6121 384.368 -59.7246 395.16 -92.1246 394.105C-109.125 393.552 -125.375 389.781 -140.412 383.33C-119.2 372.711 -100.737 356.506 -86.5621 336.392C-64.9746 351.733 -39.4996 361.003 -12.0996 361.885C20.3004 362.94 50.4254 352.148 74.8754 333.02C100.775 365.223 138.075 386.028 179.85 387.395C183.613 387.516 187.35 387.481 191.05 387.274H191.038Z" fill="white"/>
<path d="M411.188 374.96C385.151 396.371 352.301 408.616 316.751 407.457C285.963 406.454 257.526 395.541 234.051 377.64C258.326 367.696 279.501 350.678 295.526 328.8C321.776 356.437 357.338 373.974 396.763 375.254C401.626 375.409 406.426 375.306 411.176 374.977L411.188 374.96Z" fill="white" fill-opacity="0.6"/>
<path d="M234.062 377.64C220.562 383.192 206.112 386.53 191.037 387.291C200.112 379.664 208.337 370.826 215.525 361.003C221.275 367.056 227.475 372.625 234.062 377.64Z" fill="white"/>
<path d="M402.238 54.7268L401 54.6923C388.125 30.4621 370.225 15.1907 350.188 14.5335C346.663 14.4124 343.188 14.7929 339.788 15.5712C321.438 -33.7194 285.588 -67.7385 243.826 -69.1048C217.326 -69.9695 192.738 -57.5172 173.213 -36.0369C168.838 -31.2289 164.713 -25.954 160.875 -20.2985C152.538 -25.781 143.638 -29.8453 134.326 -32.2493C128.663 -33.7194 122.85 -34.5668 116.913 -34.7571C114.125 -34.8435 111.363 -34.7571 108.613 -34.5841C85.0755 -69.3815 49.1755 -93.4906 8.02551 -98.6618C-10.062 -162.947 -63.537 -210.612 -127.487 -212.705C-161.799 -213.829 -193.537 -201.653 -218.724 -180.38C-250.712 -153.366 -272.125 -111.719 -274.762 -64.0374C-312.05 -55.805 -344.237 -32.526 -365.449 -0.219116C-373.387 -5.99562 -382.049 -9.33353 -391.137 -9.62755C-397.962 -9.85238 -404.6 -8.36502 -410.937 -5.373C-424.287 4.91748 -435.974 17.5601 -445.462 32.0013C-445.574 31.9321 -445.699 31.8284 -445.812 31.7592C-450.112 39.8186 -453.862 48.8293 -456.974 58.6182C-486.624 71.0359 -511.6 93.4502 -528.3 122.108C-543.687 129.752 -555.149 139.939 -560.812 151.699C-567.974 150.212 -575.387 149.313 -582.999 149.071C-644.412 147.064 -694.925 188.088 -695.812 240.682C-696.712 293.276 -647.649 337.551 -586.237 339.557C-556.987 340.508 -530.224 331.688 -510.112 316.52C-483.487 347.253 -445.899 367.039 -403.937 368.405C-369.762 369.512 -338.062 358.235 -312.525 338.346C-286.562 373.196 -247.687 395.956 -203.924 397.374C-200.149 397.495 -196.412 397.46 -192.712 397.27C-182.925 389.02 -174.137 379.404 -166.574 368.664C-158.374 374.51 -149.624 379.439 -140.399 383.382C-119.187 372.763 -100.724 356.558 -86.5495 336.444C-64.962 351.784 -39.487 361.055 -12.087 361.937C20.313 362.992 50.438 352.2 74.888 333.071C100.788 365.274 138.088 386.08 179.863 387.447C183.625 387.568 187.363 387.533 191.063 387.326C200.138 379.698 208.363 370.861 215.551 361.037C221.301 367.09 227.5 372.659 234.088 377.675C258.363 367.73 279.538 350.712 295.563 328.834C321.813 356.471 357.376 374.008 396.801 375.288C401.663 375.444 406.463 375.34 411.213 375.012C487.113 369.719 547.538 303.203 548.95 219.911C550.463 131.395 484.776 57.4768 402.263 54.7787L402.238 54.7268Z" fill="white"/>
<path d="M2525.61 335.493C2526.28 340.889 2526.63 346.406 2526.63 352.009C2526.63 419.46 2476.9 474.129 2415.56 474.129C2390.93 474.129 2368.15 465.308 2349.74 450.366C2326.2 481.047 2287.91 501.022 2244.69 501.022C2225.59 501.022 2207.46 497.131 2191.14 490.127C2177.15 497.114 2161.61 501.022 2145.25 501.022C2104.54 501.022 2068.95 476.913 2049.61 440.992C2041.33 444.278 2032.54 446.059 2023.43 446.059C1991.59 446.059 1963.55 424.44 1947.11 391.615C1900.53 381.065 1863.95 344.815 1853.71 298.879C1871.01 324.32 1897.81 343.016 1929.11 350.107C1945.55 382.933 1973.59 404.551 2005.43 404.551C2014.53 404.551 2023.31 402.787 2031.61 399.484C2050.95 435.405 2086.54 459.515 2127.25 459.515C2143.61 459.515 2159.15 455.623 2173.14 448.619C2189.46 455.606 2207.59 459.515 2226.69 459.515C2269.93 459.515 2308.2 439.539 2331.74 408.858C2350.16 423.801 2372.93 432.621 2397.56 432.621C2458.9 432.621 2508.63 377.952 2508.63 310.502C2508.63 304.898 2508.28 299.381 2507.61 293.985C2540.65 272.816 2562.86 233.453 2562.86 188.365C2562.86 177.694 2561.63 167.369 2559.29 157.528C2572.86 177.763 2580.88 202.806 2580.88 229.873C2580.88 274.96 2558.66 314.324 2525.63 335.493H2525.61Z" fill="white" fill-opacity="0.6"/>
<path d="M2524.21 306.766C2524.89 312.162 2525.25 317.679 2525.25 323.282C2525.25 390.733 2474.26 445.402 2411.37 445.402C2386.11 445.402 2362.76 436.581 2343.87 421.639C2319.74 452.32 2280.49 472.295 2236.15 472.295C2216.57 472.295 2197.99 468.404 2181.24 461.4C2166.9 468.387 2150.96 472.295 2134.19 472.295C2092.44 472.295 2055.95 448.186 2036.12 412.265C2027.62 415.551 2018.61 417.332 2009.27 417.332C1976.64 417.332 1947.87 395.714 1931.02 362.888C1898.92 355.797 1871.45 337.101 1853.71 311.66C1840.17 292.273 1832.29 268.959 1832.29 243.899C1832.29 198.517 1858.14 158.929 1896.5 137.864C1912.62 113.478 1936.89 95.7331 1965.04 89.161C1974.11 54.9517 1993.3 31.3787 2015.47 31.3787C2022.41 31.3787 2029.05 33.7135 2035.17 37.9162C2040.91 28.7499 2047.79 20.4483 2055.57 13.2709C2061.32 -46.1717 2096.9 -91.9687 2139.94 -91.9687C2152.06 -91.9687 2163.59 -88.3368 2174.04 -81.782C2196.41 -107.724 2227.06 -123.722 2260.89 -123.722C2315.62 -123.722 2362.07 -81.8166 2378.52 -23.6538C2387.1 -10.181 2393.74 5.0731 2397.99 21.5898C2421.37 32.2261 2439.91 53.7064 2448.84 80.5827C2454.76 79.5796 2460.82 79.0262 2467 79.0262C2519.96 79.0262 2564.47 117.784 2577.21 170.326C2579.61 180.184 2580.89 190.509 2580.89 201.163C2580.89 246.251 2558.11 285.614 2524.24 306.783L2524.21 306.766Z" fill="white"/>
</svg>
