<svg width="165" height="156" viewBox="0 0 165 156" fill="none" xmlns="http://www.w3.org/2000/svg">
<path d="M124.339 32.609C114.969 31.129 118.319 34.869 110.529 35.299C112.149 32.709 114.119 31.429 116.379 30.029L123.359 25.679C124.739 24.819 126.889 24.939 127.789 25.889C128.999 27.169 129.569 29.059 129.039 30.399C128.359 32.139 126.249 32.909 124.329 32.609H124.339Z" fill="#483778" stroke="#483778" stroke-width="1.37" stroke-miterlimit="10"/>
<path d="M98.44 31.1392L95.22 21.4792C93.72 16.9892 87.58 16.4392 90.11 11.9192C90.78 10.7192 93.69 9.18918 94.79 11.3892C95.51 12.8392 103.47 31.1692 98.44 31.1392Z" fill="#483778" stroke="#483778" stroke-width="1.37" stroke-miterlimit="10"/>
<path d="M162.141 59.2796C158.501 54.5296 149.891 52.3296 135.861 52.5596C135.791 52.5496 133.291 52.6296 132.541 52.6596C122.301 53.0796 110.771 54.7096 102.881 56.2796C102.871 56.2596 102.861 56.2296 102.841 56.2096C102.841 56.2096 105.971 50.1996 106.001 50.1396C110.841 39.7396 107.301 39.0496 105.401 40.7396C104.461 39.1796 103.101 37.8496 101.371 36.9496C99.6405 36.0496 97.7705 35.6996 95.9505 35.8296C96.0605 35.8196 93.9905 29.0496 87.9105 40.7196C87.8805 40.7896 84.7505 46.7896 84.7505 46.7896C84.7306 46.7896 84.7105 46.7896 84.6905 46.8096C81.4605 39.4396 76.1705 29.0696 70.6505 20.4496C70.2405 19.8296 68.8705 17.7296 68.8205 17.6796C60.9705 6.0496 54.2205 0.259602 48.2405 0.0096018C45.3805 -0.120398 41.2905 1.00961 38.1205 7.09961L22.8105 36.5196C21.1205 39.7796 20.9205 43.7396 22.2805 47.1096C23.4405 49.9696 25.5905 52.0596 28.3405 52.9896L69.1505 66.7096C68.7405 68.4396 68.6605 70.2096 68.8805 71.9296C68.6505 72.2796 68.4105 72.6396 68.1705 73.0096C65.6905 76.8196 62.5805 81.6096 60.0305 86.6096C52.8505 84.5596 45.2005 83.5796 37.2605 83.6896C25.9005 83.8596 14.8005 86.3796 5.58054 90.8396C5.18054 86.3696 5.91054 81.7196 7.81054 77.3096C11.4205 68.9496 18.3405 63.1196 26.3205 61.7096C27.8105 61.4496 28.8005 60.0296 28.5405 58.5396C28.2805 57.0496 26.8605 56.0596 25.3705 56.3196C15.5705 58.0396 7.12054 65.0796 2.79054 75.1396C-1.60946 85.3496 -0.769457 96.7096 5.05054 105.54C6.72054 108.06 8.45054 110.4 10.2105 112.48C10.7205 113.1 11.4805 113.45 12.2905 113.46C16.6305 113.47 21.5105 114.77 26.0105 117.12C29.0905 118.72 31.9005 120.76 34.1605 123.03C34.8605 123.74 35.8905 124.01 36.8505 123.74C43.3305 121.91 49.7405 116.95 56.3205 108.65C57.2105 110.8 58.6405 112.65 60.6005 114.2C60.8705 114.41 61.1805 114.56 61.5005 114.66C63.9105 115.39 66.2605 115.5 68.5405 114.98C65.5105 125.15 65.1305 133.25 67.3505 139.61C67.6805 140.55 68.4905 141.24 69.4706 141.41C72.6206 141.95 75.9205 143.09 78.9905 144.69C83.4905 147.03 87.3505 150.27 89.8605 153.82C90.1206 154.18 90.4505 154.47 90.8405 154.67C91.1505 154.84 91.4905 154.94 91.8605 154.97C94.5705 155.21 97.4806 155.29 100.501 155.21C111.071 154.91 120.861 149.08 126.691 139.62C132.441 130.29 133.361 119.34 129.151 110.33C128.511 108.96 126.881 108.36 125.511 109C124.141 109.64 123.551 111.27 124.191 112.64C127.621 119.98 126.811 128.99 122.031 136.74C119.521 140.83 116.131 144.1 112.231 146.34C110.601 136.23 106.291 125.69 99.9105 116.29C95.4405 109.71 90.2405 104 84.4305 99.2996C87.0605 94.3396 89.1906 89.0396 90.8905 84.8296C91.0506 84.4196 91.2105 84.0196 91.3705 83.6296C92.9105 82.8296 94.3105 81.7496 95.4905 80.4096L130.171 105.98C132.511 107.7 135.451 108.27 138.461 107.57C142.011 106.75 145.141 104.31 146.831 101.06L162.141 71.6396C165.311 65.5496 163.891 61.5496 162.141 59.2796ZM57.1005 93.2696C56.1305 95.9896 55.5305 98.5096 55.3105 100.83C48.8805 110 42.6605 115.77 36.8105 117.99C34.3905 115.79 31.6205 113.86 28.5405 112.26C23.6405 109.71 18.5105 108.25 13.6205 108.02C12.2605 106.34 10.9205 104.5 9.62054 102.53C8.36054 100.62 7.39054 98.5596 6.70054 96.4096C15.4405 91.8896 26.2305 89.3296 37.3405 89.1696C44.4505 89.0596 51.2905 89.8996 57.7205 91.6496C57.5005 92.1896 57.3005 92.7296 57.1005 93.2696ZM92.4706 43.8196C93.6705 41.5096 96.5305 40.6096 98.8405 41.8096C101.151 43.0096 102.051 45.8696 100.851 48.1796L99.3505 51.0596C98.3905 50.1596 97.3005 49.3696 96.0705 48.7296L94.7605 48.0496C93.5405 47.4096 92.2606 46.9696 90.9706 46.6996L92.4706 43.8196ZM49.9205 54.4696C50.9805 49.1196 52.8705 43.8096 55.5505 38.6696C58.4505 33.0996 62.1505 28.0396 66.3505 23.8896C72.2005 33.1096 77.1005 43.1596 79.7005 49.0496C77.8405 50.3496 76.2605 52.0896 75.1505 54.2396L71.2905 61.6496L49.9205 54.4696ZM95.3805 119.37C101.621 128.56 105.721 138.87 107.031 148.62C104.881 149.29 102.631 149.67 100.341 149.73C97.9805 149.8 95.7105 149.76 93.5605 149.61C90.5505 145.75 86.4205 142.38 81.5205 139.83C78.4405 138.23 75.2706 137.06 72.0806 136.35C70.5406 130.26 71.7005 121.84 75.5405 111.28C77.2905 109.78 79.0005 107.86 80.6505 105.52C80.9805 105.05 81.3105 104.57 81.6305 104.08C86.7605 108.35 91.3805 113.48 95.3805 119.37ZM63.5905 109.56C59.0105 105.52 60.5105 98.4496 63.8405 91.2596C63.9105 91.1396 63.9805 91.0096 64.0305 90.8696C66.1105 86.4596 68.8605 82.0396 71.2905 78.2696C72.5905 80.1996 74.3805 81.8296 76.5905 82.9796L77.9005 83.6596C80.1005 84.8096 82.4705 85.3296 84.7905 85.2996C80.2905 96.3496 73.2605 111.9 63.5905 109.56ZM92.6505 74.9496C91.6805 76.8196 90.1405 78.2096 88.3505 79.0096C88.2305 79.0596 88.1005 79.1096 87.9805 79.1796C85.6105 80.1196 82.8605 80.0696 80.4205 78.7996L79.1105 78.1196C76.6805 76.8596 75.0605 74.6296 74.4706 72.1396C74.4506 72.0096 74.4305 71.8796 74.3905 71.7496C74.0506 69.9396 74.2505 68.0196 75.0806 66.2396C75.1005 66.1996 80.0005 56.7696 80.0005 56.7696C80.9406 54.9596 82.4105 53.5996 84.1205 52.7796C84.1605 52.7696 84.1906 52.7496 84.2206 52.7396C84.3105 52.6996 84.4005 52.6596 84.4805 52.6196C86.8905 51.5896 89.7305 51.5996 92.2305 52.9096L93.5405 53.5896C97.9805 55.8996 99.7105 61.3796 97.4005 65.8196L92.6505 74.9496ZM126.291 75.4796C123.611 80.6196 120.351 85.2096 116.581 89.1596L98.4105 75.7596L102.261 68.3496C103.371 66.2096 103.901 63.9196 103.901 61.6696C110.201 60.4096 121.271 58.6496 132.191 58.1596C131.201 63.9796 129.191 69.9096 126.291 75.4796Z" fill="#483778"/>
</svg>
