<svg width="221" height="200" viewBox="0 0 221 200" fill="none" xmlns="http://www.w3.org/2000/svg">
<path d="M90.473 76.2854C53.143 97.9954 17.803 75.2354 8.93303 90.1354L9.00383 90.0183C-3.31617 110.708 42.453 192.145 111.113 192.305C165.493 192.435 214.753 141.615 213.283 90.1354C212.023 46.2254 173.893 3.29537 148.453 7.25537C124.393 10.9954 128.773 54.0154 90.473 76.2854Z" stroke="white" stroke-width="14" stroke-miterlimit="10"/>
<path d="M111.144 172.315C76.2138 172.235 48.3138 144.855 35.0338 121.445C32.3638 116.735 30.5338 112.655 29.2938 109.285C28.5438 107.235 30.1838 105.105 32.3538 105.295C32.3738 105.295 32.3838 105.295 32.4038 105.295C37.8738 105.765 44.0538 106.295 50.9538 106.295C69.6238 106.295 85.8338 102.135 100.544 93.5953C126.084 78.7453 136.844 56.1353 143.964 41.1653C145.794 37.3253 148.594 31.4353 150.644 28.4853C151.334 27.4953 152.544 26.9853 153.714 27.2553C165.764 30.1053 192.364 57.7953 193.304 90.7153C193.844 109.685 185.184 129.795 169.544 145.895C153.224 162.685 132.004 172.315 111.324 172.315H111.144Z" fill="white"/>
</svg>
