<svg width="1920" height="172" viewBox="0 0 1920 172" fill="none" xmlns="http://www.w3.org/2000/svg">
<g filter="url(#filter0_d_79_2764)">
<path d="M651.592 103.931C744.386 103.931 787.652 116.198 836.329 131.817C865.835 141.286 911.449 153 962.655 153H963.801C1015.01 153 1060.62 141.286 1090.13 131.817C1138.8 116.2 1182.07 103.931 1274.86 103.931L1924 103.959V-2L2 -2V103.931L651.592 103.931Z" fill="white"/>
<path d="M651.592 103.931C744.386 103.931 787.652 116.198 836.329 131.817C865.835 141.286 911.449 153 962.655 153H963.801C1015.01 153 1060.62 141.286 1090.13 131.817C1138.8 116.2 1182.07 103.931 1274.86 103.931L1924 103.959V-2L2 -2V103.931L651.592 103.931Z" stroke="white" stroke-miterlimit="10"/>
</g>
<defs>
<filter id="filter0_d_79_2764" x="-13.5" y="-14.5" width="1953" height="186" filterUnits="userSpaceOnUse" color-interpolation-filters="sRGB">
<feFlood flood-opacity="0" result="BackgroundImageFix"/>
<feColorMatrix in="SourceAlpha" type="matrix" values="0 0 0 0 0 0 0 0 0 0 0 0 0 0 0 0 0 0 127 0" result="hardAlpha"/>
<feOffset dy="3"/>
<feGaussianBlur stdDeviation="7.5"/>
<feColorMatrix type="matrix" values="0 0 0 0 0.231373 0 0 0 0 0.219608 0 0 0 0 0.368627 0 0 0 0.161 0"/>
<feBlend mode="normal" in2="BackgroundImageFix" result="effect1_dropShadow_79_2764"/>
<feBlend mode="normal" in="SourceGraphic" in2="effect1_dropShadow_79_2764" result="shape"/>
</filter>
</defs>
</svg>
