<svg width="130" height="157" viewBox="0 0 130 157" fill="none" xmlns="http://www.w3.org/2000/svg">
<circle cx="37.1871" cy="119.252" r="12.8095" transform="rotate(45.1666 37.1871 119.252)" stroke="#483778" stroke-width="5"/>
<circle cx="37.3173" cy="119.384" r="22.8869" transform="rotate(45.1666 37.3173 119.384)" stroke="#483778" stroke-width="7"/>
<circle cx="76.0399" cy="93.3645" r="22.8869" transform="rotate(45.1666 76.0399 93.3645)" stroke="#483778" stroke-width="7"/>
<circle cx="14.0216" cy="132.708" r="5.67373" transform="rotate(45.1666 14.0216 132.708)" fill="#483778"/>
<circle cx="19.0235" cy="138.708" r="5.67373" transform="rotate(45.1666 19.0235 138.708)" fill="#483778"/>
<circle cx="88.3173" cy="49.0012" r="22.8869" transform="rotate(45.1666 88.3173 49.0012)" stroke="#483778" stroke-width="7"/>
<circle cx="76.3394" cy="93.6635" r="12.8095" transform="rotate(45.1666 76.3394 93.6635)" stroke="#483778" stroke-width="5"/>
<circle cx="88.7691" cy="49.3354" r="12.8095" transform="rotate(45.1666 88.7691 49.3354)" stroke="#483778" stroke-width="5"/>
<path d="M123.929 24.1939C114.559 22.7139 117.909 26.454 110.119 26.884C111.739 24.294 113.709 23.014 115.969 21.614L122.949 17.2639C124.329 16.4039 126.479 16.5239 127.379 17.4739C128.589 18.7539 129.159 20.6439 128.629 21.9839C127.949 23.7239 125.839 24.4939 123.919 24.1939H123.929Z" fill="#483778" stroke="#483778" stroke-width="1.37" stroke-miterlimit="10"/>
<path d="M102.053 21.5503L98.8333 11.8903C97.3333 7.40032 91.1933 6.85032 93.7233 2.33032C94.3933 1.13032 97.3033 -0.399685 98.4033 1.80032C99.1233 3.25032 107.083 21.5803 102.053 21.5503Z" fill="#483778" stroke="#483778" stroke-width="1.37" stroke-miterlimit="10"/>
<path d="M45.0266 99.5222C42.6137 98.2832 38.3358 92.391 40.1592 86.8068C42.0034 82.4945 49.4878 86.0051 51.4345 87.6178C55.6195 92.8487 55.6165 96.9151 54.4997 99.09C53.3829 101.265 47.4395 100.761 45.0266 99.5222Z" fill="#483778"/>
<path d="M66.3993 72.5497C63.6873 72.5992 57.1313 69.431 56.0967 63.6484C55.6821 58.9766 63.9368 58.5299 66.4148 59.0302C72.5761 61.6597 74.4968 65.244 74.5414 67.6884C74.5861 70.1328 69.1112 72.5001 66.3993 72.5497Z" fill="#483778"/>
<path d="M67.5867 113.444C69.9996 114.683 74.2775 120.575 72.4541 126.159C70.6098 130.471 63.1255 126.961 61.1788 125.348C56.9938 120.117 56.9968 116.051 58.1136 113.876C59.2303 111.701 65.1738 112.205 67.5867 113.444Z" fill="#483778"/>
<path d="M100.23 68.9355C102.942 68.8685 109.518 71.9945 110.59 77.7703C111.034 82.4393 102.783 82.9391 100.302 82.4548C94.1235 79.865 92.1798 76.2931 92.1195 73.849C92.0591 71.4049 97.5186 69.0024 100.23 68.9355Z" fill="#483778"/>
</svg>
