<svg width="1596" height="732" viewBox="0 0 1596 732" fill="none" xmlns="http://www.w3.org/2000/svg">
<path d="M1575.08 691.818C1577.6 695.338 1581.99 697.998 1585.75 700.528C1593.78 705.938 1595.98 715.258 1588.79 721.828C1577.13 732.479 1555.41 730.378 1540.22 726.428C1516.06 720.138 1513.53 732.219 1482.43 721.598C1466.77 716.258 1449.94 717.378 1435.04 723.408C1399.22 737.889 1384.96 709.208 1348.56 723.158C1306.72 739.179 1292.56 706.058 1250.32 721.098C1243.18 723.648 1235.61 726.758 1227.44 727.288C1220.7 727.718 1212.08 726.348 1206.19 723.738C1188.04 715.718 1168.56 715.238 1150.14 722.818C1136.4 728.468 1122.34 728.818 1108.4 723.648C1087.92 716.058 1066.02 716.648 1045.99 724.238C1034.41 728.628 1021.87 728.508 1010.37 724.738C986.964 717.098 975.469 716.468 952.572 724.138C938.53 728.838 924.712 728.248 911.036 723.138C893.574 716.608 874.757 716.928 857.579 723.628C842.087 729.678 826.017 727.978 810.784 722.238C792.545 715.368 772.961 715.558 755.064 722.868C715.532 738.999 704.201 704.718 651.7 723.908C637.658 729.048 622.343 728.638 608.749 723.468C570.832 709.048 558.193 736.629 525.086 724.178C483.879 708.668 477.383 736.349 441.6 724.228C419.435 716.718 406.937 715.008 384.17 723.078C368.56 728.608 352.337 729.028 336.939 723.048C322.956 717.618 307.523 717.768 293.61 723.428C280.724 728.678 266.399 728.948 253.029 723.888C239.246 718.678 224.768 714.958 209.323 718.118C202.096 719.598 195.092 722.508 187.853 724.508C173.776 728.418 158.649 726.778 145.373 721.458C131.744 715.998 117.407 715.818 103.86 721.438C85.9746 728.868 69.9872 720.118 51.9837 724.498C39.5805 727.518 29.9598 734.679 11.579 730.949C5.5778 729.728 1.94644 725.798 0.519838 721.388C-3.12331 710.058 13.2885 706.058 21.5298 699.478C27.7786 694.508 24.9372 686.838 19.4548 682.127C9.91656 673.927 6.07298 662.237 12.4632 651.747C16.8609 644.517 25.114 640.247 33.2139 636.296C41.349 632.326 47.4917 625.576 45.9472 617.436C44.6385 610.546 38.2718 606.146 31.5986 602.946C21.7421 598.216 15.1278 590.215 15.5169 580.365C16.0946 566.155 31.9523 562.005 40.4648 553.735C49.0126 545.424 46.7371 533.764 36.409 527.924C24.1354 520.964 13.7484 515.624 15.5758 501.144C17.6863 484.353 45.0158 484.443 45.9236 466.383C46.3598 457.743 39.9932 451.182 31.8698 446.722C22.2962 441.472 14.7859 433.572 15.7527 423.612C16.5662 415.192 23.6638 409.182 31.9759 405.201C45.5227 398.701 50.9933 384.221 41.5141 373.281C33.9095 364.491 17.1203 363.151 14.1374 347.7C10.7537 330.09 27.1184 325.55 36.5269 317.44C47.138 308.299 46.6192 293.759 34.5343 286.359L23.5931 279.639C17.3208 275.799 14.3732 269.799 14.2317 263.898C14.0785 257.398 17.5212 251.598 24.1708 247.598L38.767 238.838C49.2838 232.518 50.9108 218.277 41.0896 210.957C31.4807 203.807 17.7452 201.277 16.6134 187.677C15.3872 172.856 28.6393 169.836 39.2622 162.476C48.9183 155.786 49.0008 143.466 39.5334 136.806L25.1022 126.655C14.0431 118.875 15.5758 105.265 26.5642 97.5448C36.0081 90.9147 46.7961 84.1345 43.1293 72.5743C39.722 61.824 24.9372 61.064 15.5287 50.5138C8.51355 42.6436 5.4599 33.9934 8.10089 24.1432C10.2231 16.2331 16.7548 8.85289 26.6468 4.5128C41.8206 -2.13734 58.7984 -1.21731 73.9369 5.82284C88.8396 12.753 107.692 14.213 123.562 7.39287C144.065 -1.41732 165.346 -2.56735 185.719 8.04287C204.312 17.7331 228.069 17.6331 247.322 8.79289C272.506 -2.77736 299.057 -0.487304 323.286 11.1429C341.49 19.8731 363.88 20.8632 382.59 14.593L415.509 3.56278C434.856 -2.91736 454.204 2.46276 471.971 9.91293C489.81 17.3831 510.478 16.5331 527.597 8.53289C546.379 -0.247299 566.905 -1.54733 586.312 7.26286C609.338 17.7031 635.123 19.1631 658.574 8.4329C676.554 0.20272 698.707 -3.09736 717.418 3.92279L735.398 10.6829C751.279 16.6431 768.469 15.503 783.985 8.8129C802.708 0.752721 825.038 -0.957316 843.596 7.95288C862.944 17.2431 885.581 17.9231 905.235 8.62289C924.158 -0.337305 945.651 -0.607302 964.822 8.05288C977.367 13.723 991.527 16.5931 1005.77 14.803C1013.88 13.783 1021.74 10.7729 1028.97 7.58287C1048.7 -1.12732 1070.25 -0.887317 1089.73 8.26288C1108.8 17.2231 1130.52 17.1731 1149.04 7.64287C1157.92 3.07277 1167.92 1.52275 1178.01 1.10274C1206.41 -0.0672879 1219.25 13.163 1241.52 15.273C1258.8 16.9131 1273.5 14.233 1288.47 7.76287C1309.46 -1.30733 1334.27 -2.29734 1355.22 6.99286C1375.28 15.8931 1397.34 16.8531 1417.98 7.59287C1437.45 -1.15732 1459.79 -2.95735 1479.72 6.69285C1497.04 15.073 1516.45 16.073 1533.47 6.51284C1551.6 -3.66738 1580.76 -2.01734 1591.05 15.033C1599.27 28.6333 1595.46 44.1137 1583.79 55.3539C1572.6 66.1241 1572.13 81.7645 1583.63 92.4447C1596.71 104.595 1596.51 121.705 1582.7 133.706C1578 137.776 1572.41 142.066 1570.37 147.686C1567.39 155.966 1571.58 164.026 1578.66 169.616C1586.47 175.766 1593 183.217 1594.27 192.447C1596.53 208.817 1574.03 213.987 1574.71 227.268C1575.13 235.188 1580.94 241.208 1586.72 246.538C1598.58 257.468 1596.02 271.929 1583.13 280.879C1576.28 285.629 1570.92 292.739 1571.14 300.319C1571.54 313.609 1591.42 319.48 1593.99 334.81C1595.42 343.32 1589.88 350.8 1582.29 356.15C1570.43 364.511 1568.08 378.001 1578.14 388.511C1582.68 393.251 1588.28 397.681 1592.36 403.051C1599.3 412.172 1595.9 423.892 1585.71 430.052C1577.98 434.722 1572.66 441.012 1571.9 448.062C1571 456.273 1574.27 463.483 1581.61 469.323C1590.04 476.033 1596.87 485.043 1591.97 495.373C1589.56 500.453 1583.92 504.734 1579.55 508.654C1569.88 517.294 1569.47 529.084 1578.5 538.014C1582.6 542.084 1587 546.135 1590.32 550.715C1599.18 562.915 1596.51 578.115 1584 587.705C1572.47 596.546 1570.47 610.746 1580.41 621.496C1586.47 628.056 1593.67 634.776 1595.31 643.117C1597.76 655.637 1592.17 665.907 1580.74 672.887C1573.83 677.107 1570.59 685.548 1575.08 691.818Z" fill="#483778"/>
</svg>
