<svg width="44" height="65" viewBox="0 0 44 65" fill="none" xmlns="http://www.w3.org/2000/svg">
<path d="M21.6723 61.5135C21.8729 62.8874 21.0238 63.9924 19.6798 64.0564C10.8819 64.4746 3.53899 57.7588 5.51872 56.0436C10.1694 52.0159 14.3379 47.8516 17.0814 42.3391L23.9763 28.4767C23.4473 27.6319 20.7251 31.7151 17.3587 28.8223C14.4489 26.322 10.6174 26.0319 7.22539 27.7257C6.20992 28.2335 5.50592 28.5407 4.02539 29.1636C4.22166 27.986 4.55446 27.3247 5.22432 26.6335C8.84672 22.8745 13.7961 21.1508 19.0569 21.5647C25.2265 22.0511 31.1742 23.681 36.2601 27.282C39.3833 29.4922 41.1027 33.1444 41.7342 36.9674C43.2062 45.8378 39.6478 54.9343 32.7315 60.6132C30.4062 62.5204 27.5561 63.5444 24.6334 63.1946C25.7385 61.8591 27.0995 61.697 28.4307 60.9716C37.651 55.9327 42.5491 44.8522 39.8867 34.6676C34.3017 34.5055 28.9086 35.3887 26.2121 29.3898C26.0115 28.9418 25.3843 28.4938 24.7443 28.2207L21.9497 42.2367C20.6782 48.6196 20.7209 54.9812 21.6723 61.5135Z" fill="#483778"/>
<path d="M36.4039 24.9055C32.4487 23.0196 29.0823 21.5476 25.2892 20.5706L15.4375 19.2991C18.006 14.273 23.5228 12.2591 28.9714 13.441C33.9378 14.5204 37.4108 19.6618 36.4039 24.9055Z" fill="#483778"/>
<path d="M31.1049 46.1919C33.5273 46.1919 35.491 44.2281 35.491 41.8057C35.491 39.3834 33.5273 37.4196 31.1049 37.4196C28.6825 37.4196 26.7188 39.3834 26.7188 41.8057C26.7188 44.2281 28.6825 46.1919 31.1049 46.1919Z" fill="#483778"/>
<path d="M15.417 34.4244C15.3573 36.5322 14.1114 37.9956 12.7461 38.5204C10.9327 39.2159 8.92313 38.9172 7.73272 37.2959C6.82392 36.0628 6.86233 34.3476 7.48099 32.9524C8.00153 31.7748 9.20899 30.6015 10.7877 30.3711C11.9311 30.2047 13.2111 30.4735 14.0858 31.1306C14.8282 31.6895 15.4554 33.0975 15.4213 34.4244H15.417Z" fill="#483778"/>
<path d="M6.82352 45.7695C6.42672 46.8532 5.53072 47.826 4.68592 48.2399C3.76005 48.6922 2.24538 48.6538 1.34938 47.8858C-0.762618 46.0724 -0.301818 42.5738 2.07898 41.2298C3.38885 40.4916 5.07418 40.8415 6.01712 41.665C7.07525 42.5866 7.40378 44.2036 6.82352 45.7695Z" fill="#483778"/>
<path d="M32.2705 55.4719C31.0459 57.2425 29.0406 57.7887 27.4406 56.8244C25.7254 55.7876 25.2347 53.633 26.2545 51.8068C27.2742 49.9807 29.4843 49.2212 31.3915 50.3434C32.9873 51.282 33.5377 53.6372 32.2705 55.4719Z" fill="#483778"/>
<path d="M40.5306 9.44735C34.6383 9.79722 37.1727 11.6234 32.4922 12.9204C33.1322 11.1284 34.1647 10.0874 35.3509 8.93109L39.0202 5.35562C39.7455 4.65162 41.0682 4.43829 41.7423 4.89482C42.6511 5.51349 43.2442 6.58442 43.1034 7.47189C42.9242 8.61962 41.7423 9.37482 40.5306 9.44309V9.44735Z" fill="#483778"/>
<path d="M24.5773 12.0031L21.3303 6.55455C19.82 4.02015 16.0141 4.50655 16.9485 1.42175C17.1959 0.602554 18.7618 -0.715845 19.7218 0.478821C20.3533 1.26389 27.6365 11.3546 24.573 12.0074L24.5773 12.0031Z" fill="#483778"/>
</svg>
