<svg width="1920" height="330" viewBox="0 0 1920 330" fill="none" xmlns="http://www.w3.org/2000/svg">
<path d="M669.966 181.658L571.387 181.477C567.21 181.477 563.383 177.482 561.366 175.555C559.129 173.461 559.168 166.711 560.59 163.543C566.021 151.557 579.636 147.484 592.398 151.492C597.312 138.472 608.264 129.653 621.065 129.24C633.865 128.839 645.141 137.58 650.338 149.669C663.721 147.536 677.259 153.497 680.065 166.272C680.789 169.556 680.44 173.823 679.315 176.383C678.319 178.646 674.66 181.633 669.966 181.633H669.954L669.966 181.658Z" fill="#33C0BE"/>
<path d="M453.257 255.71C447.322 253.563 449.688 230.353 450.348 223.63C454.278 217.966 488.647 182.822 479.066 178.71C471.359 179.021 469.73 188.473 465.696 192.494L448.046 210.014C443.676 195.39 460.744 154.505 452.714 152.734C444.684 150.962 438.361 187.412 435.659 195.688C427.979 191.02 419.289 165.25 412.23 169.801C403.722 175.297 430.758 203.381 433.125 210.803C436.293 217.643 432.789 227.276 433.138 235.771C424.526 232.888 408.26 207.726 403.321 211.812C396.662 217.307 421.307 239.288 426.065 243.684C429.582 246.93 431.418 250.175 429.763 255.735C391.994 252.748 364.556 217.1 367.698 178.4C369.198 159.897 377.409 143.889 391.567 131.567C413.652 112.353 446.003 107.116 472.833 120.046C502.224 134.218 514.818 165.56 512.219 197.562C509.982 225.078 490.755 247.085 463.653 254.016C460.097 254.921 455.934 253.279 453.309 255.684L453.283 255.71H453.257Z" fill="#FB8C18"/>
<path d="M453.256 255.71L454.251 282.811C454.484 289.147 455.79 294.655 455.26 300.345C454.911 306.137 455.7 310.443 454.639 315.693C445.653 315.9 437.339 316.132 428.482 314.93C427.525 309.784 427.939 305.012 427.783 300.345C427.564 293.673 429.852 255.244 429.697 255.723C431.352 250.163 429.516 246.917 425.999 243.672C421.241 239.275 396.596 217.294 403.255 211.799C408.207 207.713 424.473 232.875 433.072 235.758C432.71 227.263 436.227 217.617 433.059 210.79C430.693 203.355 403.669 175.284 412.164 169.789C419.211 165.237 427.9 191.02 435.593 195.675C438.309 187.4 444.541 150.936 452.648 152.721C460.755 154.505 443.636 195.377 447.98 210.001L465.63 192.481C469.664 188.473 471.293 179.034 479 178.698C488.594 182.822 454.213 217.966 450.282 223.617C449.648 230.354 447.282 253.537 453.191 255.697H453.23L453.256 255.71Z" fill="#72530E"/>
<path d="M1735.58 264.321C1735.62 253.809 1762.81 245.379 1757.19 231.453C1754.52 224.845 1737.52 245.43 1731.38 247.538C1727.19 238.332 1731.6 216.118 1725.07 212.484C1710.22 204.248 1714.31 237.983 1710.53 246.206C1701.25 242.469 1693.66 228.207 1688.79 229.436C1687.41 229.772 1683.64 230.664 1684.43 233.405C1686.59 240.84 1693.36 247.784 1699.12 252.154C1705.3 256.848 1702.19 259.796 1703.16 264.192C1688.94 264.528 1679.33 267.955 1662.45 265.304C1638.89 261.606 1619.4 242.805 1621.26 218.6C1623.2 193.244 1645.39 176.59 1670.83 178.568C1672.08 166.142 1677.7 156.264 1685.84 148.014C1697.25 136.442 1709.51 133.377 1725.46 133.287C1750.8 133.145 1771.12 151.829 1771.8 178.982C1787.46 175.659 1800.53 183.016 1810.82 194.369C1820.26 204.778 1822.55 218.574 1819.25 232.009C1816.3 244.086 1807.17 254.3 1795.03 260.313C1775.29 270.088 1754.46 264.748 1735.55 264.295L1735.58 264.321Z" fill="#FD6775"/>
<path d="M1735.58 264.321L1735.49 293.569C1735.49 296.814 1737.08 299.478 1737.28 301.896C1739.43 303.642 1741.41 304.34 1742.9 304.327C1744.62 304.327 1744.82 310.288 1743.47 310.43C1730.54 311.943 1716.67 311.891 1703.77 311.736C1701.78 307.585 1704.13 304.159 1704.27 300.668C1704.79 287.337 1705.68 275.506 1703.19 264.192C1702.21 259.795 1705.31 256.847 1699.14 252.154C1693.39 247.77 1686.6 240.84 1684.45 233.405C1683.65 230.638 1687.43 229.772 1688.81 229.435C1693.68 228.207 1701.27 242.469 1710.56 246.206C1714.32 237.982 1710.26 204.234 1725.09 212.484C1731.62 216.117 1727.2 238.331 1731.4 247.538C1737.54 245.43 1754.55 224.832 1757.21 231.452C1762.82 245.378 1735.63 253.809 1735.6 264.321H1735.59H1735.58Z" fill="#72530E"/>
<path d="M1419.99 241.784C1420.99 232.965 1415.95 221.276 1420.01 212.523C1422.33 207.57 1449.45 182.887 1446.36 178.167C1441.06 170.099 1425.18 193.231 1419.73 197.097C1416.79 185.9 1421.35 145.001 1413.81 143.773C1403.74 142.118 1409.47 180.96 1407.7 189.391C1402.95 183.921 1392.4 162.392 1386.45 164.048C1375.01 167.228 1400.84 194.86 1403.13 201.674C1407.58 215.018 1401.92 230.366 1402.63 243.723C1391.9 240.788 1380.67 238.357 1372.14 229.19C1363.91 220.358 1357.63 207.79 1355.16 196.05C1352.47 183.158 1349.9 171.495 1351.68 158.552C1355.86 128.179 1359.56 74.9069 1384.25 54.154C1402.05 39.2067 1427.13 41.4694 1441.16 59.2743C1446.28 65.7652 1450.57 72.1269 1453.12 80.2471C1462.31 109.56 1471.03 138.937 1474.57 169.633C1478.79 206.265 1456.81 242.973 1419.99 241.797H1420.01L1419.99 241.784Z" fill="#33C0BE"/>
<path d="M1419.99 241.784C1419.35 247.59 1420.69 252.969 1421.03 259.356L1423.21 300.409L1400.91 300.358C1400.03 278.325 1403.86 266.868 1402.63 243.723C1401.92 230.367 1407.58 215.006 1403.13 201.675C1400.86 194.847 1375.04 167.242 1386.45 164.048C1392.4 162.393 1402.95 183.921 1407.7 189.391C1409.48 180.96 1403.74 142.118 1413.81 143.773C1421.35 145.015 1416.79 185.913 1419.74 197.097C1425.17 193.231 1441.04 170.099 1446.36 178.168C1449.46 182.887 1422.33 207.571 1420.01 212.523C1415.93 221.264 1420.99 232.966 1419.99 241.784Z" fill="#72530E"/>
<path d="M684.784 271.653C677.698 269.92 670.366 270.67 663.1 271.161C656.428 271.614 638.7 269.429 637.963 258.386C636.877 241.913 656.26 215.898 682.883 222.453C702.614 227.315 713.295 255.374 707.644 263.39C701.709 271.821 695.916 268.653 684.784 271.64H684.771L684.784 271.653Z" fill="#FB8C18"/>
<path d="M1902.06 308.943L1889.8 311.633C1869.5 316.106 1848.33 312.77 1828.06 312.331C1827.34 308.232 1824.11 305.18 1824.82 300.344C1825.19 297.836 1813.86 280.044 1823.16 275.376C1833.98 269.933 1837.02 288.242 1843.07 293.737C1846.51 285.604 1844.63 272.622 1853.46 268.601C1860.06 265.601 1865.94 278.725 1864.36 284.427C1863.38 287.944 1864.48 289.91 1866.89 291.642C1870.82 286.341 1874.29 279.462 1880.37 275.273C1884.04 272.726 1887.26 275.57 1888.78 278.376C1891.48 283.419 1884.06 296.84 1881.7 300.319C1889.22 300.694 1892.89 294.371 1898.55 295.56C1904.21 296.75 1904.15 304.818 1902.06 308.943Z" fill="#4D7A36"/>
<path d="M1556.9 260.882C1556.9 256.886 1555.84 254.895 1559.64 251.223C1564.5 246.542 1588.27 219.958 1582.62 215.872C1581.63 215.161 1579.09 215.406 1577.95 216.803L1555.33 244.577C1551.95 234.478 1556.41 208.101 1550.9 204.894C1541.81 199.606 1548.82 239.495 1545.48 245.003C1537.02 238.693 1527.56 210.182 1520.5 214.837C1515.3 218.251 1533.52 242.948 1537.94 247.072C1543.61 252.361 1542.89 254.83 1541.87 260.882C1513.25 260.843 1488.52 240.374 1486.08 210.105C1483.01 172.103 1519.48 141.032 1559.66 146.566C1589.08 150.6 1609.1 173.422 1610.8 202.398C1612.72 234.853 1588.86 262.86 1556.9 260.882Z" fill="#FB8C18"/>
<path d="M1556.9 260.882L1557 300.564C1551.58 303.551 1545.51 301.392 1540.02 300.422C1539.69 287.22 1539.68 273.954 1541.86 260.856C1542.87 254.804 1543.58 252.348 1537.93 247.046C1533.51 242.909 1515.32 218.225 1520.49 214.811C1527.55 210.157 1537.03 238.681 1545.47 244.978C1548.8 239.469 1541.8 199.58 1550.89 204.868C1556.39 208.075 1551.93 234.465 1555.32 244.551L1577.94 216.777C1579.06 215.393 1581.62 215.148 1582.6 215.846C1588.27 219.932 1564.49 246.503 1559.63 251.197C1555.81 254.856 1556.86 256.847 1556.89 260.856L1556.9 260.882Z" fill="#72530E"/>
<path d="M1380.31 300.37C1375.17 301.211 1375.31 304.314 1371.55 308.387C1361.9 318.835 1336.16 315.667 1328.97 300.383C1322.4 286.445 1340.18 269.959 1351.88 268.976C1358.85 268.394 1366.97 270.605 1372.44 273.812C1381.86 279.32 1381.53 291.448 1380.3 300.357H1380.31V300.37ZM1364.99 298.172C1367.58 292.961 1363.63 287.867 1360.64 286.38C1356.74 284.44 1350.18 284.402 1345.76 287.983C1342.7 290.453 1347.26 298.508 1350.71 300.28C1354.49 302.206 1362.47 303.267 1364.99 298.185H1364.98L1364.99 298.172Z" fill="#FB8C18"/>
<path d="M769.154 298.703L726.342 298.379L719.683 289.897C717.317 286.897 724.597 282.63 727.118 280.975C730.713 278.609 735.665 280.135 739.984 281.88C740.307 276.295 734.786 265.045 741.923 261.696C753.961 256.046 754.737 273.489 763.491 281.609C765.585 275.208 772.787 270.437 778.309 274.122C789.429 281.557 771.197 294.862 769.154 298.69V298.703Z" fill="#4D7A36"/>
<path d="M1661.79 300.551C1653.41 304.831 1644.22 303.254 1634.7 302.892C1630.46 302.724 1625.48 303.306 1621.28 303.435C1611.11 303.771 1602.41 301.379 1593.31 300.215C1593.34 297.228 1592.51 293.97 1593.35 290.181C1594.19 286.393 1598.17 284.453 1600.91 283.962C1603.65 283.471 1615.67 290.686 1616.91 295.418C1616.7 288.009 1613.35 282.76 1617.64 276.695C1619.43 274.174 1621.86 271.782 1624.94 271.885C1626.99 271.95 1630.01 273.566 1631.31 275.971L1639.97 291.888C1643.19 290.143 1644.19 286.458 1646.83 283.484C1650.62 279.204 1659.24 281.454 1660.61 287.208C1661.62 291.487 1659.29 296.815 1661.81 300.564H1661.8L1661.79 300.551Z" fill="#4D7A36"/>
<path d="M930.652 302.077C908.141 306.745 910.352 310.753 893.31 303.306C889.353 301.573 884.491 302.517 882.474 298.948C886.302 299.892 878.789 287.738 884.621 284.44C890.452 281.143 896.478 293.828 897.926 291.306C897.848 286.044 898.404 281.143 900.344 278.428C901.676 276.566 906.563 274.342 908.503 276.165C913.015 280.393 912.214 287.595 913.959 293.505C917.334 291.979 918.912 287.026 922.829 285.811C927.523 284.324 930.019 290.906 928.881 295.082C928.312 297.164 927.536 298.845 928.325 300.176C928.764 300.913 929.98 301.392 930.652 302.09V302.064V302.077Z" fill="#4D7A36"/>
<path d="M684.783 271.653C682.998 273.127 684.886 275.415 684.705 277.691L683.606 291.643C683.386 294.436 685.016 296.996 683.516 298.897C676.533 298.974 669.874 298.78 662.918 298.741C660.784 289.845 659.491 279.644 663.112 271.148C670.379 270.657 677.71 269.907 684.796 271.64L684.783 271.653Z" fill="#4D7A36"/>
<path d="M1129.54 242.004C1131.46 233.728 1126.48 222.634 1131.02 213.997C1136.45 203.666 1157.55 184.878 1159.1 169.362C1155.11 167.681 1151.6 170.862 1149.16 173.913L1128.55 199.58C1127.2 193.115 1129.67 168.56 1123.75 168.25C1121.15 168.108 1120.08 170.771 1119.78 173.332L1116.12 205.101C1109.35 200.123 1092.46 170.461 1086.51 180.081C1093.23 193.916 1102.67 206.51 1114.22 216.829L1112.09 243.09C1103.64 240.491 1095.41 236.728 1088.32 230.108C1064.61 207.92 1040.39 184.801 1029.81 153.238C1026.85 144.394 1028.88 134.864 1028.84 125.942C1036.24 108.525 1051.02 97.0305 1070.31 94.91C1091.33 92.5955 1110.66 105.293 1121.03 124.714C1133.05 102.177 1156.17 90.1647 1180.13 95.298C1201.4 99.8365 1213.49 116.84 1212.93 138.911C1212.42 158.526 1202.4 177.03 1190.84 193.115C1179.28 209.187 1149.43 242.922 1129.53 242.042V242.004H1129.54ZM1187.53 126.382C1186.94 121.857 1183.82 119.49 1181.57 118.844C1178.2 117.874 1174.69 118.727 1171.88 121.443C1166.52 126.641 1166.55 137.256 1173.63 141.135C1177.63 143.308 1182.22 139.571 1184.56 137.722C1187.43 135.446 1188.17 131.115 1187.53 126.382ZM1085.85 147.575C1085.85 143.657 1082.68 140.489 1078.77 140.489C1074.85 140.489 1071.68 143.657 1071.68 147.575C1071.68 151.492 1074.85 154.66 1078.77 154.66C1082.68 154.66 1085.85 151.492 1085.85 147.575ZM1154.38 142.894C1151.74 139.829 1145.71 139.118 1143.34 142.118C1140.97 145.118 1140.05 152.01 1142.93 154.777C1146.22 157.958 1151.34 155.372 1153.24 153.057C1155.31 150.549 1157.47 146.489 1154.37 142.881L1154.38 142.894Z" fill="#93B522"/>
<path d="M1129.54 242.004C1127.69 249.956 1128.24 256.822 1128.86 265.55L1131.37 300.461C1123.41 303.694 1116.88 300.409 1109.24 300.422C1109.93 283.005 1110.72 259.99 1112.09 243.077L1114.22 216.816C1102.67 206.498 1093.24 193.904 1086.51 180.068C1092.46 170.448 1109.35 200.11 1116.12 205.088L1119.78 173.319C1120.08 170.746 1121.14 168.108 1123.75 168.237C1129.69 168.535 1127.2 193.102 1128.55 199.567L1149.16 173.901C1151.62 170.836 1155.11 167.655 1159.1 169.349C1157.55 184.878 1136.45 203.653 1131.02 213.984C1126.49 222.622 1131.47 233.716 1129.54 241.991V242.017V242.004Z" fill="#72530E"/>
<path d="M1187.53 126.382C1188.15 131.114 1187.43 135.459 1184.56 137.722C1182.22 139.558 1177.64 143.308 1173.63 141.135C1166.55 137.269 1166.52 126.641 1171.88 121.443C1174.68 118.727 1178.2 117.874 1181.57 118.844C1183.82 119.477 1186.93 121.869 1187.53 126.382Z" fill="#FB8C18"/>
<path d="M1154.38 142.894C1157.5 146.502 1155.32 150.562 1153.26 153.07C1151.35 155.385 1146.21 157.971 1142.94 154.79C1140.07 152.01 1140.87 145.26 1143.35 142.131C1145.83 139.002 1151.76 139.856 1154.39 142.907L1154.38 142.894Z" fill="#FB8C18"/>
<path d="M1078.77 154.66C1082.68 154.66 1085.85 151.488 1085.85 147.575C1085.85 143.661 1082.68 140.489 1078.77 140.489C1074.85 140.489 1071.68 143.661 1071.68 147.575C1071.68 151.488 1074.85 154.66 1078.77 154.66Z" fill="#FB8C18"/>
<path d="M1289.23 269.467C1289.21 264.412 1288.79 261.942 1293.59 257.856C1298.39 253.77 1319.48 230.25 1312.66 227.574C1311.39 227.082 1308.79 227.884 1307.44 229.384L1285.49 253.55C1281.71 246.633 1288.42 213.544 1276.4 215.575L1275.03 252.374C1268.76 248.883 1256.83 228.944 1252.77 232.254C1247.18 236.832 1263.03 255.089 1267.34 258.58C1271.34 261.839 1271.81 263.856 1272.2 269.416C1258.01 269.442 1241.65 269.17 1229.6 261.27C1208.44 247.396 1203.93 223.695 1213.27 202.205C1219.11 188.744 1224.19 176.874 1233.81 165.884C1256.58 139.933 1295.09 138.692 1318.16 165.444C1329.2 178.258 1336.34 193.477 1341.43 210.325C1343.73 217.928 1343.29 228.039 1341.66 236.211C1338.73 250.9 1325.98 261.296 1312.08 266.313C1304.68 268.989 1296.5 268.304 1289.26 269.429H1289.24L1289.23 269.467ZM1286.06 167.707C1286.06 162.949 1282.2 159.083 1277.44 159.083C1272.68 159.083 1268.81 162.949 1268.81 167.707C1268.81 172.465 1272.68 176.331 1277.44 176.331C1282.2 176.331 1286.06 172.465 1286.06 167.707ZM1259.23 191.99C1262.1 187.012 1256.7 179.189 1251.7 179.331C1245.19 179.512 1244.6 187.503 1246.99 192.636C1248.46 195.791 1256.05 197.537 1259.23 192.003V191.99ZM1300.49 200.162C1300.49 195.921 1297.05 192.481 1292.81 192.481C1288.57 192.481 1285.13 195.921 1285.13 200.162C1285.13 204.403 1288.57 207.842 1292.81 207.842C1297.05 207.842 1300.49 204.403 1300.49 200.162ZM1241.12 211.915C1241.65 204.584 1237.36 203.588 1232.02 204.493C1228.46 205.088 1226.08 207.933 1226.11 212.833C1226.13 217.734 1229.26 220.669 1233.23 220.604C1237.2 220.54 1240.68 217.566 1241.11 211.928L1241.12 211.915Z" fill="#93B522"/>
<path d="M1289.23 269.467L1289.34 296.931C1289.96 301.508 1290.67 306.099 1289.79 311.206C1282.72 311.387 1277.36 311.581 1270.11 310.443C1271.72 305.724 1270.47 302.168 1270.65 298.948C1271.27 287.945 1272.82 278.868 1272.18 269.455C1271.8 263.895 1271.31 261.865 1267.32 258.619C1263.04 255.128 1247.17 236.87 1252.74 232.293C1256.79 228.97 1268.74 248.908 1275.01 252.413L1276.38 215.613C1288.38 213.583 1281.65 246.659 1285.47 253.589L1307.41 229.423C1308.77 227.923 1311.37 227.121 1312.64 227.612C1319.46 230.263 1298.13 253.977 1293.56 257.895C1289 261.813 1289.19 264.438 1289.21 269.506V269.48L1289.23 269.467Z" fill="#72530E"/>
<path d="M1277.44 176.331C1282.2 176.331 1286.06 172.47 1286.06 167.707C1286.06 162.944 1282.2 159.083 1277.44 159.083C1272.67 159.083 1268.81 162.944 1268.81 167.707C1268.81 172.47 1272.67 176.331 1277.44 176.331Z" fill="#FB8C18"/>
<path d="M1241.12 211.915C1240.7 217.566 1237.38 220.527 1233.24 220.591C1229.1 220.656 1226.16 217.63 1226.12 212.82C1226.08 208.01 1228.47 205.075 1232.03 204.48C1237.34 203.588 1241.66 204.571 1241.13 211.902L1241.12 211.915Z" fill="#FB8C18"/>
<path d="M1292.8 207.842C1297.04 207.842 1300.48 204.404 1300.48 200.162C1300.48 195.92 1297.04 192.481 1292.8 192.481C1288.56 192.481 1285.12 195.92 1285.12 200.162C1285.12 204.404 1288.56 207.842 1292.8 207.842Z" fill="#FB8C18"/>
<path d="M1259.23 191.99C1256.05 197.524 1248.46 195.765 1246.99 192.623C1244.6 187.49 1245.19 179.499 1251.7 179.318C1256.7 179.176 1262.1 187.011 1259.23 191.977V191.99Z" fill="#FB8C18"/>
<path d="M307.997 300.978L307.584 308.103L283.663 308.465C280.611 308.504 282.357 302.711 281.413 301.004C280.107 298.599 283.417 267.515 281.503 261.968C262.923 269.377 280.275 254.546 233.882 261.231C230.74 261.683 221.973 260.378 224.443 256.486C233.093 242.87 244.381 231.375 251.622 216.699C245.713 215.73 241.226 216.208 236.157 213.092C246.101 201.791 259.794 178.853 264.449 168.224C258.488 168.043 254.596 169.388 250.199 165.793C259.845 146.67 269.918 128.205 278.685 108.435C282.37 100.095 286.559 92.893 292.093 84.5918L325.311 152.152C327.056 155.708 331.854 158.682 331.556 163.065C331.259 167.448 324.975 166.362 320.811 166.673C326.087 178.517 333.147 188.473 340.62 198.623L350.809 212.471C345.922 216.143 340.827 214.256 334.866 214.501C335.914 220.889 340.142 225.169 343.827 229.785L361.386 251.792C363.597 254.572 365.821 258.089 365.394 261.774C351.352 264.67 338.202 261.916 324.457 262.123C319.828 262.188 314.269 266.946 307.597 263.817L307.972 301.004L307.997 300.978ZM306.485 144.95C306.485 140.916 303.226 137.644 299.179 137.644C295.132 137.644 291.873 140.903 291.873 144.95C291.873 148.997 295.132 152.255 299.179 152.255C303.226 152.255 306.485 148.997 306.485 144.95ZM317.643 197.11C319.79 191.576 310.105 180.042 304.92 182.809C296.283 187.464 302.024 202.45 308.385 206.252C312.264 203.433 315.704 202.037 317.617 197.084H317.63L317.643 197.11ZM274.043 201.041C272.517 201.015 271.25 201.649 269.827 202.631C266.698 204.778 265.974 208.036 267.086 211.501C267.914 214.126 271.121 215.29 274.883 215.368C277.948 215.419 280.236 214.139 280.249 211.851C280.275 209.006 276.719 201.08 274.03 201.041H274.043Z" fill="#4D7A36"/>
<path d="M317.644 197.11C315.73 202.05 312.278 203.459 308.412 206.278C302.05 202.45 296.296 187.464 304.947 182.835C310.119 180.042 319.816 191.589 317.67 197.136H317.657L317.644 197.11Z" fill="#93B522"/>
<path d="M299.179 152.255C303.213 152.255 306.484 148.985 306.484 144.95C306.484 140.915 303.213 137.644 299.179 137.644C295.144 137.644 291.873 140.915 291.873 144.95C291.873 148.985 295.144 152.255 299.179 152.255Z" fill="#93B522"/>
<path d="M274.043 201.041C276.707 201.08 280.288 209.006 280.262 211.85C280.237 214.152 277.948 215.419 274.896 215.367C271.147 215.303 267.94 214.126 267.1 211.501C266 208.036 266.725 204.778 269.841 202.631C271.263 201.649 272.53 201.015 274.056 201.041H274.043Z" fill="#93B522"/>
<path d="M193.916 245.378C190.632 240.982 185.563 238.474 181.089 234.595C178.309 232.19 177.947 228.569 174.508 228.388C169.297 228.117 159.47 236.431 152.746 241.034L148.699 216.919C148.208 213.971 145.971 212.497 143.734 212.497C135.756 212.523 141.859 229.293 138.006 239.288C131.929 237.788 125.489 226.953 120.201 230.405C114.382 234.233 134.476 250.486 138.032 253.68C140.191 255.619 138.756 258.722 139.118 260.636C121.662 263.933 99.8747 255.878 88.8452 243.452C67.4587 219.389 72.773 185.796 97.7024 167.629C126.821 146.398 175.426 149.217 198.493 179.163C214.863 200.433 213.919 229.733 193.929 245.378H193.916ZM173.68 186.236C173.68 182.37 170.551 179.241 166.685 179.241C162.819 179.241 159.69 182.37 159.69 186.236C159.69 190.102 162.819 193.231 166.685 193.231C170.551 193.231 173.68 190.102 173.68 186.236ZM113.775 191.524C113.775 187.619 110.607 184.451 106.702 184.451C102.797 184.451 99.629 187.619 99.629 191.524C99.629 195.429 102.797 198.597 106.702 198.597C110.607 198.597 113.775 195.429 113.775 191.524Z" fill="#93B522"/>
<path d="M179.447 237.375C176.718 237.595 170.564 238.461 164.629 242.922C155.978 249.439 154.116 258.865 153.716 261.102C157.427 276.372 156.612 287.673 156.599 300.345C156.599 303.487 156.935 306.551 156.082 310.728H137.54C139.04 307.03 138.057 304.521 138.005 302.116C137.837 295.108 136.997 287.595 138.07 279.902C139.027 273.036 140.307 266.868 139.117 260.623C138.755 258.722 140.191 255.619 138.031 253.667C134.476 250.473 114.382 234.22 120.201 230.392C125.476 226.927 131.928 237.776 138.005 239.275C141.859 229.293 135.73 212.51 143.734 212.484C145.97 212.484 148.207 213.945 148.699 216.906L152.746 241.021C159.457 236.418 169.284 228.104 174.507 228.375C176.667 228.479 181.283 231.556 181.089 234.582C181.024 235.72 180.248 236.664 179.434 237.375H179.447Z" fill="#72530E"/>
<path d="M106.702 198.597C110.608 198.597 113.775 195.43 113.775 191.524C113.775 187.618 110.608 184.451 106.702 184.451C102.796 184.451 99.6289 187.618 99.6289 191.524C99.6289 195.43 102.796 198.597 106.702 198.597Z" fill="#FB8C18"/>
<path d="M166.696 193.231C170.56 193.231 173.692 190.099 173.692 186.236C173.692 182.373 170.56 179.241 166.696 179.241C162.833 179.241 159.701 182.373 159.701 186.236C159.701 190.099 162.833 193.231 166.696 193.231Z" fill="#FB8C18"/>
<path d="M896.102 54.9559C857.078 50.689 848.234 82.9109 838.64 87.2813C837.127 87.9796 834.632 86.9452 833.377 88.9235C830.287 93.824 831.36 123.874 828.128 132.86C815.637 118.715 807.62 104.31 797.535 90.3328C795.945 88.1347 792.738 86.4667 790.734 87.6692C782.355 92.7249 815.392 131.813 815.999 138.834L784.463 117.15C770.395 107.491 749.629 108.306 735.018 116.387C726.522 92.712 743.409 67.0456 768.843 63.076C772.67 62.4812 770.407 55.5119 770.821 53.3008C774.855 30.6213 791.07 13.463 809.353 5.6661C832.395 -4.17377 856.652 -1.09643 875.142 14.1095C887.956 24.6476 896.606 39.3233 896.128 54.9689H896.102V54.9559ZM819.012 54.9171C819.012 51.3354 816.116 48.4391 812.534 48.4391C808.952 48.4391 806.056 51.3354 806.056 54.9171C806.056 58.4987 808.952 61.3951 812.534 61.3951C816.116 61.3951 819.012 58.4987 819.012 54.9171Z" fill="#F33D1F"/>
<path d="M816.01 138.834C833.091 150.574 824.518 164.539 825.553 188.938C809.119 176.111 795.93 161.823 780.75 148.169C776.353 144.226 764.807 148.712 796.382 178.93C799.059 181.503 801.386 184.18 802.589 186.934C799.188 198.649 789.426 207.868 777.802 212.962C776.017 213.738 775.125 214.979 774.492 216.079C759.777 219.44 745.631 218.871 731.434 211.049C705.703 196.877 697.337 163.828 714.353 138.329C719.267 130.972 727.141 120.731 735.003 116.374C749.614 108.293 770.38 107.478 784.448 117.137L815.984 138.821H816.01V138.834Z" fill="#FB8C18"/>
<path d="M849.811 233.392C846.204 231.595 845.984 227.393 845.842 223.966C845.648 219.557 848.984 217.553 851.984 214.475C855.216 211.165 896.644 168.509 888.537 166.582C886.675 166.142 882.887 165.806 881.361 167.293L844.019 203.368C841.73 189.882 841.277 176.111 843.178 163.776L855.074 150.988L872.452 137.308C884.71 127.649 910.777 155.242 939.055 120.163C951.093 129.912 962.485 141.019 963.351 157.634C964.205 174.249 960.3 188.589 949.296 199.657C939.081 209.924 924.47 215.898 908.682 214.514C890.322 230.328 871.806 231.957 849.786 233.392H849.798H849.811ZM927.522 159.354C927.522 155.966 924.781 153.225 921.393 153.225C918.005 153.225 915.264 155.966 915.264 159.354C915.264 162.742 918.005 165.483 921.393 165.483C924.781 165.483 927.522 162.742 927.522 159.354Z" fill="#F33D1F"/>
<path d="M838.64 87.3072C840.011 88.2382 841.291 90.1647 841.304 92.6473L841.614 144.898C853.949 140.347 870.539 113.62 878.31 116.814C879.797 117.421 879.655 121.546 878.31 123.15L855.062 150.988L843.166 163.776C841.278 176.112 841.718 189.869 844.006 203.368L881.349 167.293C882.887 165.806 886.65 166.155 888.525 166.582C896.632 168.483 855.204 211.152 851.971 214.475C848.971 217.553 845.635 219.544 845.829 223.966C845.985 227.393 846.191 231.595 849.799 233.392C850.963 255.257 853.807 277.135 856.82 298.832C857.117 300.978 856.018 303.293 855.553 306.344L821.236 306.745C820.551 303.668 820.706 301.12 820.835 298.664C821.417 287.764 819.568 276.489 821.611 265.071C823.654 253.641 821.986 243.659 822.568 233.353C824.133 204.933 829.589 209.135 802.591 186.973C801.401 184.206 799.074 181.529 796.384 178.969C764.809 148.751 776.368 144.265 780.752 148.208C795.919 161.85 809.108 176.15 825.555 188.977C824.52 164.578 833.093 150.613 816.012 138.873C815.418 131.852 782.368 92.7637 790.747 87.708C792.751 86.4926 795.958 88.1735 797.548 90.3716C807.647 104.349 815.65 118.753 828.141 132.899C831.373 123.925 830.287 93.8757 833.391 88.9622C834.645 86.971 837.14 88.0054 838.653 87.3201H838.64V87.3072Z" fill="#72530E"/>
<path d="M896.101 54.9559C921.625 66.2439 938.654 92.2465 939.055 120.15C910.764 155.242 884.71 127.649 872.452 137.295L855.074 150.975L878.322 123.137C879.667 121.533 879.809 117.409 878.322 116.801C870.551 113.607 853.975 140.334 841.626 144.885L841.316 92.6344C841.303 90.1648 840.023 88.2123 838.652 87.2943C848.259 82.9109 857.091 50.6889 896.114 54.9688L896.101 54.9559Z" fill="#FB8C18"/>
<path d="M822.568 233.328C805.164 234.388 786.558 228.724 774.52 216.092C775.14 214.993 776.045 213.751 777.83 212.975C789.441 207.894 799.203 198.649 802.617 186.947C829.615 209.109 824.158 204.894 822.594 233.328H822.581H822.568Z" fill="#F33D1F"/>
<path d="M812.546 61.3952C816.124 61.3952 819.024 58.4949 819.024 54.9172C819.024 51.3394 816.124 48.4392 812.546 48.4392C808.969 48.4392 806.068 51.3394 806.068 54.9172C806.068 58.4949 808.969 61.3952 812.546 61.3952Z" fill="#FB8C18"/>
<path d="M921.393 165.483C924.777 165.483 927.521 162.739 927.521 159.354C927.521 155.969 924.777 153.225 921.393 153.225C918.008 153.225 915.264 155.969 915.264 159.354C915.264 162.739 918.008 165.483 921.393 165.483Z" fill="#FB8C18"/>
<path d="M541.063 229.992C539.201 231.634 536.072 232.035 533.047 232.927C530.861 256.757 538.981 254.921 552.468 263.067L567.169 256.007C573.66 252.891 560.342 252.852 582.039 247.085C599.327 242.482 608.016 257.08 611.701 260.804C615.916 265.071 625.588 263.649 629.777 269.998C632.48 274.096 631.949 276.695 629.932 281.156C627.269 287.014 627.101 293.711 623.299 298.573C617.636 298.547 613.77 301.857 609.671 305.362C606.955 307.689 601.745 306.874 598.421 308.297C593.198 310.547 589.293 306.034 588.31 302.336C583.888 302.129 583.319 302.543 587.069 304.922C570.932 305.504 554.304 307.521 536.951 306.215C519.987 304.935 503.837 307.211 486.071 304.974C494.734 301.573 469.702 310.055 479.735 307.34C470.064 304.599 494.062 303.008 484.429 302.064C480.796 290.88 473.775 264.438 489.899 257.74C494.088 255.994 499.803 258.645 504.613 257.248C506.359 249.645 512.513 249.904 518.048 247.706C526.387 244.383 528.34 226.759 541.063 229.979V229.992ZM520.802 288.837C527.448 287.143 530.189 283.781 531.831 278.906C533.965 272.545 529.129 268.097 526.103 265.847C518.526 260.184 504.07 270.554 503.32 275.7C502.79 279.333 504.367 282.139 506.203 284.958C510.134 290.983 514.944 290.35 520.802 288.85V288.837ZM579.337 293.634C594.232 281.311 592.926 288.009 593.689 271.872C587.483 270.45 583.241 268.032 578.69 264.463C571.566 268.136 562.928 266.287 560.652 271.032C561.661 268.924 558.506 283.083 562.424 286.794C564.881 289.121 567.57 290.712 571.953 291.798L579.337 293.634Z" fill="#4D7A36"/>
<path d="M582.041 247.072C560.345 252.839 573.663 252.878 567.172 255.994L552.47 263.054C538.984 254.908 530.864 256.744 533.049 232.914C536.075 232.035 539.191 231.634 541.066 229.979C543.781 227.587 546.794 224.212 550.815 222.557C558.379 219.441 567.34 222.182 573.495 227.328C579.003 231.931 583.438 239.327 582.054 247.072H582.041Z" fill="#FD6775"/>
<path d="M579.338 293.634L571.955 291.798C567.558 290.712 564.882 289.121 562.425 286.794C558.507 283.096 561.662 268.924 560.654 271.032C562.929 266.287 571.58 268.136 578.691 264.463C583.243 268.045 587.497 270.45 593.69 271.872C592.927 288.009 594.233 281.311 579.338 293.634Z" fill="#FD6775"/>
<path d="M520.802 288.837C514.958 290.337 510.135 290.97 506.204 284.945C504.368 282.126 502.804 279.333 503.321 275.687C504.058 270.54 518.527 260.183 526.104 265.834C529.129 268.097 533.965 272.545 531.832 278.893C530.203 283.781 527.449 287.117 520.802 288.824V288.837Z" fill="#FD6775"/>
<path d="M1364.99 298.172C1362.45 303.254 1354.5 302.193 1350.71 300.267C1347.26 298.495 1342.71 290.453 1345.76 287.97C1350.18 284.389 1356.74 284.414 1360.64 286.367C1363.62 287.854 1367.56 292.961 1364.99 298.159H1365L1364.99 298.172Z" fill="#FD6775"/>
<path d="M1961.17 316.792C1946.29 309.435 1912.8 306.564 1902.05 308.93L1889.8 311.62C1869.5 316.094 1848.33 312.745 1828.06 312.331C1828.28 317.555 1823.72 323.554 1820.21 325.778C1814.4 329.438 1808.07 329.334 1801.7 326.774C1788.35 321.382 1788.77 320.542 1788.55 302.517L1737.25 301.87C1739.39 303.629 1741.37 304.314 1742.86 304.301C1744.58 304.288 1744.8 310.275 1743.44 310.404C1730.51 311.917 1716.65 311.866 1703.74 311.71C1701.75 307.56 1704.11 304.146 1704.25 300.642L1661.76 300.526C1653.38 304.806 1644.19 303.228 1634.68 302.879C1630.43 302.698 1625.45 303.28 1621.25 303.422C1611.1 303.745 1602.39 301.366 1593.28 300.202C1581.28 298.651 1568.91 303.008 1556.99 300.565C1551.58 303.551 1545.49 301.405 1540.01 300.422C1532.73 299.129 1524.61 302.504 1517.87 299.026C1518.33 300.021 1517.42 301.508 1518.35 302.388C1519.33 303.319 1520.78 303.461 1522.42 304.185C1524.79 305.258 1523.81 309.667 1526.32 310.21C1529.15 310.844 1530.7 312.098 1531.36 313.676C1533.84 313.96 1536.39 314.658 1536.92 317.503C1537.27 319.352 1538.24 322.429 1535.92 323.878C1532.7 325.921 1528.01 325.209 1526.7 321.563C1525.98 319.533 1526.51 316.313 1527.82 314.064C1527.24 312.822 1526.36 312.641 1525.57 312.732C1524.62 312.835 1523.58 316.184 1522.67 316.391C1505.84 320.244 1488.57 319.003 1472.53 318.24C1472.27 311.62 1474.74 308.801 1481.32 304.275C1475.18 302.982 1469.67 300.629 1464.39 300.603L1423.21 300.396L1400.91 300.345C1390.54 300.332 1382.27 298.108 1380.31 300.345C1375.18 301.185 1375.31 304.275 1371.54 308.361C1361.91 318.796 1336.15 315.641 1328.96 300.358L1297.81 300.5C1293.95 300.513 1290.92 299.776 1289.36 296.905C1289.99 301.483 1290.69 306.073 1289.81 311.18C1282.74 311.361 1277.37 311.555 1270.13 310.417C1271.75 305.698 1270.51 302.142 1270.67 298.922C1270.14 299.685 1268.89 300.513 1267.14 300.487L1241.25 300.112C1231.66 299.97 1222.63 297.112 1213.67 299.866C1216.48 291.19 1217.35 282.294 1211.56 277.045C1208.73 274.484 1203.5 276.411 1202.07 278.894C1200.52 281.505 1198.73 284.26 1197.63 288.449C1195.6 282.889 1191.19 270.321 1182.5 273.204C1174.23 275.945 1179.72 286.574 1177.02 293.531C1175.41 288.333 1169.24 284.014 1163.44 285.889C1158.45 287.518 1158.71 294.436 1159.06 299.207C1150.86 303.707 1139.36 297.177 1131.35 300.435C1123.41 303.668 1116.87 300.384 1109.23 300.396L1015.06 300.642L1014.86 317.374L993.749 317.425C993.012 311.762 993.852 307.043 993.956 302.181C992.262 301.276 990.09 300.5 987.349 300.487L946.101 300.345C940.27 300.332 935.46 301.056 930.637 302.039C908.112 306.706 910.336 310.702 893.294 303.267C889.338 301.534 884.463 302.491 882.459 298.922L856.818 298.78C857.129 300.94 856.03 303.254 855.551 306.306L821.248 306.706C820.562 303.629 820.717 301.082 820.847 298.625L769.152 298.677L726.353 298.366L683.515 298.884C676.52 298.961 669.874 298.78 662.918 298.741L623.312 298.547C617.662 298.535 613.77 301.832 609.684 305.349C606.956 307.689 601.758 306.861 598.422 308.284C593.198 310.534 589.293 306.034 588.31 302.323C583.901 302.116 583.319 302.53 587.069 304.896C570.932 305.478 554.304 307.508 536.952 306.202C520.362 304.961 504.51 307.094 487.196 305.09C488.089 304.638 488.386 304.25 488.386 303.888C488.399 303.241 487.403 302.698 486.744 302.439C486.343 302.103 485.05 302.116 484.429 302.039C475.921 301.185 467.491 298.754 458.168 301.444C457.108 301.728 455.828 300.513 455.246 300.332C454.897 306.137 455.699 310.43 454.638 315.68C445.652 315.887 437.338 316.132 428.481 314.917C427.537 309.758 427.95 305 427.795 300.319C419.559 298.832 400.81 306.293 395.897 298.418C393.453 294.474 394.927 285.824 387.789 284.997C383.225 284.479 380.729 290.75 379.217 295.341C374.82 292.535 373.114 280.652 363.804 283.432C360.675 284.363 357.998 287.777 358.89 291.759L360.882 300.603C354.598 298.871 349.283 301.573 343.439 301.651L324.742 301.935C318.716 302.039 313.273 300.603 307.971 300.939L307.571 308.064L283.65 308.439C280.585 308.478 282.344 302.672 281.413 300.978L230.339 302.039C229.136 311.025 224.727 320.567 216.167 323.218C206.327 326.296 182.6 323.541 184.514 309.383C184.967 306.125 185.898 304.185 184.255 302.039L163.334 302.116C160.516 302.013 158.292 301.508 156.585 300.319C156.585 303.461 156.908 306.525 156.068 310.702H137.526C139.026 306.991 138.043 304.495 137.991 302.09L132.832 301.353C136.401 302.181 99.7568 301.289 99.7568 301.289C97.8431 298.625 99.1232 277.678 85.4172 277.898C81.3701 277.963 80.9692 282.268 76.8704 285.953C75.3446 278.079 69.6553 264.14 61.7809 266.338C53.8935 268.549 54.3201 281.803 53.1176 290.388L38.9462 272.092C37.1101 269.726 34.5111 267.968 31.9509 267.657C29.171 267.295 25.5893 269.429 23.9472 272.584C19.7707 280.704 24.167 288.643 28.7184 296.892C23.0938 296.854 5.22428 290.35 5.32772 299.414C5.36651 301.651 8.21115 302.633 9.58175 306.9C-0.54258 306.099 -43.2639 309.9 -44.4017 321.951C-45.3456 332.101 -18.2052 334.648 -16.1364 334.648L1938.53 334.597C1947.5 334.597 1956.37 330.705 1962.84 327.046C1967.02 324.679 1964.42 318.434 1961.11 316.779H1961.13L1961.17 316.792ZM329.099 322.649C327.186 325.313 323.177 326.735 319.143 324.369C316.454 322.753 315.367 316.456 317.759 313.934C320.307 311.258 326.423 311.128 330.198 313.495C333.625 315.641 330.664 320.49 329.099 322.649ZM508.428 321.744C505.958 323.774 501.032 324.951 498.2 321.02C496.209 318.214 497.373 313.883 499.39 312.551C501.588 311.103 507.07 309.422 510.251 311.904C514.117 314.904 511.324 319.391 508.428 321.757V321.744ZM572.174 321.408C569.355 321.408 567.053 319.119 567.053 316.288C567.053 313.456 569.355 311.167 572.174 311.167C574.992 311.167 577.307 313.456 577.307 316.288C577.307 319.119 575.005 321.408 572.174 321.408ZM644.815 325.623C639.449 325.481 636.76 321.77 636.682 318.382C636.566 313.184 640.535 310.521 645.733 310.572C651.306 310.611 654.409 313.417 654.487 318.369C654.565 322.83 651.061 325.791 644.828 325.636H644.815V325.623ZM709.828 321.473C706.35 321.473 703.518 318.641 703.518 315.163C703.518 311.684 706.35 308.866 709.828 308.866C713.306 308.866 716.125 311.697 716.125 315.163C716.125 318.628 713.294 321.473 709.828 321.473ZM793.241 325.688C789.362 325.688 786.22 322.546 786.22 318.667C786.22 314.788 789.362 311.659 793.241 311.659C797.12 311.659 800.249 314.801 800.249 318.667C800.249 322.533 797.107 325.688 793.241 325.688ZM856.663 318.033C856.017 320.012 852.81 321.136 850.961 321.123C848.815 321.123 845.776 318.977 846.5 315.693C847.082 313.068 852.06 310.598 854.375 311.516C856.883 312.499 857.206 316.391 856.663 318.02V318.033ZM1070.8 322.856C1067.35 322.856 1064.53 320.037 1064.53 316.585C1064.53 313.133 1067.35 310.314 1070.8 310.314C1074.25 310.314 1077.07 313.12 1077.07 316.585C1077.07 320.05 1074.27 322.856 1070.8 322.856ZM1109.67 317.283C1104.22 319.727 1097.6 319.119 1092.61 316.611C1090.4 315.538 1090.74 311.051 1092.63 309.874C1099.13 305.84 1111.54 306.655 1112.44 311.672C1112.71 313.288 1112.24 316.107 1109.67 317.257V317.283ZM1177.58 322.158C1174.66 322.158 1172.29 319.792 1172.29 316.869C1172.29 313.947 1174.66 311.607 1177.58 311.607C1180.5 311.607 1182.87 313.96 1182.87 316.869C1182.87 319.779 1180.5 322.158 1177.58 322.158ZM1426.37 325.946C1422.36 325.946 1419.1 322.714 1419.1 318.68C1419.1 314.646 1422.33 311.413 1426.37 311.413C1430.4 311.413 1433.63 314.671 1433.63 318.68C1433.63 322.688 1430.38 325.946 1426.37 325.946ZM1590.95 320.128C1589.79 322.494 1582.68 317.568 1583.17 314.969C1583.78 311.775 1587.58 311.969 1589.08 311.982C1592.17 312.021 1592.82 316.313 1590.95 320.115V320.128ZM1655.36 321.925C1654.31 324.537 1650.28 327.576 1645.24 324.02C1641.95 321.705 1641.94 313.585 1644.76 311.439C1647.86 309.098 1652.81 310.366 1655.23 312.499C1657.11 314.18 1656.63 318.783 1655.37 321.925H1655.36ZM1687.1 323.464C1683.82 327.64 1661.85 325.197 1662.08 320.05C1662.54 310.598 1680.1 310.133 1682.25 311.995C1684.27 313.753 1689.78 320.063 1687.12 323.464H1687.1Z" fill="#93B522"/>
<path d="M1531.37 313.689L1527.84 314.089C1527.26 312.848 1526.38 312.667 1525.59 312.758C1524.65 312.861 1523.6 316.21 1522.7 316.417C1505.86 320.27 1488.6 319.029 1472.55 318.266C1472.3 311.646 1474.76 308.827 1481.35 304.301C1475.2 303.008 1469.7 300.655 1464.42 300.629C1461.82 295.496 1460.5 285.1 1468.04 283.471C1475.83 281.777 1478.88 291.513 1480.96 297.254C1483.69 289.289 1480.27 281.57 1486.09 275.803C1488.34 273.553 1491.08 272.028 1494.15 273.062C1501.31 275.493 1497.1 290.569 1499.88 292.703C1504.28 290.414 1506.21 284.104 1510.61 285.061C1516.88 286.445 1515.93 294.565 1517.9 299.065C1518.35 300.06 1517.45 301.547 1518.38 302.426C1519.36 303.357 1520.81 303.5 1522.45 304.224C1524.82 305.297 1523.83 309.706 1526.34 310.249C1529.17 310.883 1530.73 312.137 1531.39 313.714H1531.4L1531.37 313.689Z" fill="#4D7A36"/>
<path d="M230.365 302.077C229.149 311.077 224.753 320.593 216.193 323.257C206.353 326.334 182.614 323.58 184.527 309.409C184.967 306.163 185.911 304.224 184.269 302.077C180.183 296.763 183.183 291.694 185.368 287.195C188.768 280.186 204.479 278.208 217.034 282.682C225.787 285.811 232.007 292.923 230.365 302.064V302.077ZM205.539 312.538C209.237 314.529 216.723 309.771 216.542 305.724C216.31 300.215 210.504 297.707 207.077 297.177C204.194 296.724 196.565 298.069 197.108 301.819C197.664 305.711 202.423 310.844 205.539 312.525V312.538Z" fill="#FB8C18"/>
<path d="M1824.82 300.371C1824.11 305.194 1827.36 308.258 1828.06 312.357C1828.28 317.581 1823.73 323.58 1820.21 325.804C1814.42 329.463 1808.07 329.36 1801.71 326.8C1788.35 321.408 1788.76 320.568 1788.57 302.543C1794.13 296.207 1800.7 287.389 1810.39 290.906C1815.85 292.884 1820.61 297.41 1824.81 300.371H1824.82ZM1812.13 318.46C1817.98 316.895 1816.95 309.254 1813.11 306.163C1809.88 303.564 1803.49 303.189 1802.34 309.486C1801.69 313.055 1808.67 319.378 1812.13 318.46Z" fill="#FB8C18"/>
<path d="M1687.1 323.464C1683.82 327.627 1661.85 325.196 1662.1 320.05C1662.55 310.598 1680.11 310.12 1682.26 311.995C1684.27 313.753 1689.78 320.063 1687.12 323.464H1687.1Z" fill="#4D7A36"/>
<path d="M1109.67 317.283C1104.23 319.74 1097.61 319.119 1092.6 316.611C1090.4 315.512 1090.73 311.051 1092.62 309.874C1099.12 305.853 1111.53 306.655 1112.42 311.684C1112.71 313.288 1112.23 316.119 1109.66 317.27H1109.67V317.283Z" fill="#4D7A36"/>
<path d="M644.816 325.636C639.45 325.494 636.774 321.783 636.683 318.382C636.541 313.184 640.524 310.521 645.735 310.559C651.307 310.611 654.411 313.404 654.488 318.369C654.566 322.83 651.049 325.791 644.816 325.636Z" fill="#FB8C18"/>
<path d="M1645.24 324.007C1641.98 321.692 1641.94 313.572 1644.76 311.439C1647.86 309.098 1652.8 310.353 1655.22 312.499C1657.11 314.167 1656.63 318.783 1655.37 321.925C1654.33 324.537 1650.29 327.576 1645.24 324.007Z" fill="#FB8C18"/>
<path d="M330.199 313.495C333.626 315.628 330.652 320.477 329.1 322.636C327.186 325.3 323.165 326.735 319.157 324.356C316.454 322.753 315.381 316.456 317.76 313.921C320.294 311.245 326.423 311.129 330.199 313.495Z" fill="#FB8C18"/>
<path d="M1426.37 325.972C1430.38 325.972 1433.63 322.719 1433.63 318.705C1433.63 314.692 1430.38 311.439 1426.37 311.439C1422.35 311.439 1419.1 314.692 1419.1 318.705C1419.1 322.719 1422.35 325.972 1426.37 325.972Z" fill="#FB8C18"/>
<path d="M510.239 311.891C514.105 314.891 511.325 319.378 508.429 321.757C505.959 323.787 501.02 324.951 498.201 321.033C496.197 318.24 497.374 313.896 499.391 312.577C501.589 311.129 507.071 309.448 510.239 311.904V311.891Z" fill="#FB8C18"/>
<path d="M793.241 325.675C797.111 325.675 800.249 322.537 800.249 318.667C800.249 314.796 797.111 311.658 793.241 311.658C789.37 311.658 786.232 314.796 786.232 318.667C786.232 322.537 789.37 325.675 793.241 325.675Z" fill="#FB8C18"/>
<path d="M709.817 321.46C713.294 321.46 716.114 318.64 716.114 315.163C716.114 311.685 713.294 308.866 709.817 308.866C706.339 308.866 703.52 311.685 703.52 315.163C703.52 318.64 706.339 321.46 709.817 321.46Z" fill="#FB8C18"/>
<path d="M1070.8 322.856C1074.27 322.856 1077.07 320.048 1077.07 316.585C1077.07 313.121 1074.27 310.314 1070.8 310.314C1067.34 310.314 1064.53 313.121 1064.53 316.585C1064.53 320.048 1067.34 322.856 1070.8 322.856Z" fill="#FB8C18"/>
<path d="M1531.37 313.702C1533.86 313.986 1536.4 314.684 1536.93 317.529C1537.28 319.378 1538.24 322.455 1535.94 323.904C1532.71 325.947 1528.02 325.235 1526.72 321.602C1525.98 319.572 1526.52 316.339 1527.83 314.09L1531.36 313.715L1531.37 313.702Z" fill="#FB8C18"/>
<path d="M1177.58 322.158C1180.49 322.158 1182.85 319.796 1182.85 316.882C1182.85 313.969 1180.49 311.607 1177.58 311.607C1174.66 311.607 1172.3 313.969 1172.3 316.882C1172.3 319.796 1174.66 322.158 1177.58 322.158Z" fill="#FB8C18"/>
<path d="M572.187 321.408C575.015 321.408 577.307 319.116 577.307 316.288C577.307 313.46 575.015 311.167 572.187 311.167C569.359 311.167 567.066 313.46 567.066 316.288C567.066 319.116 569.359 321.408 572.187 321.408Z" fill="#FB8C18"/>
<path d="M846.502 315.706C847.084 313.068 852.049 310.585 854.376 311.516C856.885 312.512 857.208 316.391 856.665 318.033C855.992 320.011 852.812 321.136 850.95 321.136C848.816 321.136 845.778 318.99 846.502 315.706Z" fill="#FB8C18"/>
<path d="M1590.96 320.141C1589.81 322.494 1582.68 317.581 1583.19 314.995C1583.79 311.788 1587.61 311.995 1589.11 312.008C1592.19 312.046 1592.84 316.313 1590.97 320.154H1590.96V320.141Z" fill="#FB8C18"/>
<path d="M205.54 312.538C202.424 310.87 197.666 305.724 197.11 301.832C196.566 298.095 204.208 296.75 207.079 297.19C210.492 297.72 216.298 300.215 216.544 305.737C216.725 309.784 209.238 314.529 205.54 312.551V312.538Z" fill="#FD6775"/>
<path d="M1812.12 318.46C1808.69 319.391 1801.68 313.042 1802.34 309.486C1803.49 303.176 1809.87 303.551 1813.11 306.163C1816.96 309.253 1817.98 316.908 1812.12 318.46Z" fill="#FD6775"/>
<path d="M1014.58 291.785C1004.34 277.251 1009.45 255.645 1003.64 255.05C995.274 254.184 1001.73 270.411 998.339 278.053C993.632 274.95 989.12 252.684 983.301 256.266C976.629 260.377 992.792 283.794 994.266 290.065C979.008 294.798 960.04 291.565 949.954 278.234C940.218 265.356 939.817 248.262 948.041 235.668C951.726 230.017 959.51 227.897 962.173 222.13C967.513 210.583 973.642 199.347 985.473 194.175C998.417 188.499 1009.37 190.516 1021.15 196.05C1032.06 201.183 1032 215.911 1039 223.009C1049.53 233.677 1063.46 240.077 1061.48 259.744C1059.69 277.381 1046.48 291.798 1026.47 290.065C1022.44 289.716 1017.79 289.858 1014.59 291.798L1014.58 291.785Z" fill="#33C0BE"/>
<path d="M1014.58 291.785C1015.78 295.173 1014.08 298.586 1015.09 300.681L1014.88 317.413L993.79 317.464C993.053 311.788 993.881 307.069 993.997 302.22L994.269 290.078C992.795 283.794 976.645 260.391 983.304 256.279C989.123 252.697 993.635 274.963 998.342 278.066C1001.73 270.437 995.277 254.21 1003.64 255.063C1009.45 255.658 1004.35 277.264 1014.58 291.798V291.785Z" fill="#72530E"/>
<path d="M206.821 224.212C209.807 227.781 193.916 253.68 168.521 259.847C162.767 261.244 157.634 261.36 153.742 261.115C152.656 257.869 151.673 253.098 153.639 248.676C156.742 241.655 164.953 240.607 181.115 234.595C200.95 227.225 205.424 222.531 206.834 224.212H206.821Z" fill="#93B522"/>
</svg>
